<?xml version="1.0" encoding="UTF-8"?>
<svg id="Layer_1" data-name="Layer 1" xmlns="http://www.w3.org/2000/svg" xmlns:xlink="http://www.w3.org/1999/xlink" viewBox="0 0 1125.25 2436.25">
  <defs>
    <clipPath id="clippath-1">
      <rect x="60.12" y="1324.12" width="114" height="114" fill="none"/>
    </clipPath>
    <clipPath id="clippath-3">
      <rect x="60.12" y="998.12" width="114" height="114" fill="none"/>
    </clipPath>
  </defs>
  <rect x=".12" y=".12" width="1125" height="2436" fill="#f2f2f2"/>
  <g id="iOS_15_Notification_Box" data-name="iOS 15 Notification Box">
    <rect x=".12" y=".12" width="1125" height="2436" fill="#64d2ff" stroke="#000" stroke-miterlimit="10" stroke-width=".25"/>
    <g id="Light_Notification_Box_2" data-name="Light Notification Box_2">
      <rect x="30.12" y="1268.12" width="1065" height="226" rx="54" ry="54" fill="none" stroke="#000" stroke-miterlimit="10" stroke-width=".25"/>
      <rect id="Background_2" data-name="Background 2" x="30.12" y="1268.12" width="1065" height="226" rx="54" ry="54" stroke="#000" stroke-miterlimit="10" stroke-width=".25"/>
      <path id="Notification_Text_2" data-name="Notification Text_2" d="M230.65,1365.62v3.15h-10.8v28.35h-3.15v-28.35h-10.78v-3.15h24.73ZM243.35,1397.71c-2.07,0-3.96-.54-5.67-1.6-1.7-1.07-3.05-2.49-4.07-4.28-1.01-1.8-1.51-3.79-1.51-5.96,0-1.65.29-3.19.88-4.61.59-1.44,1.39-2.7,2.41-3.78,1.03-1.1,2.23-1.95,3.6-2.57,1.37-.61,2.82-.92,4.37-.92,2.07,0,3.95.53,5.65,1.6,1.71,1.06,3.07,2.49,4.07,4.29,1.02,1.8,1.53,3.8,1.53,5.99,0,1.63-.29,3.16-.88,4.59-.59,1.42-1.4,2.68-2.43,3.78-1.02,1.08-2.21,1.93-3.58,2.54-1.35.62-2.8.93-4.36.93ZM243.35,1394.56c1.53,0,2.9-.39,4.12-1.19,1.23-.81,2.2-1.87,2.9-3.19.72-1.32,1.08-2.76,1.08-4.3s-.36-3.02-1.08-4.34c-.72-1.34-1.69-2.4-2.92-3.2-1.22-.79-2.58-1.19-4.1-1.19s-2.91.4-4.14,1.21c-1.22.8-2.18,1.86-2.9,3.18-.71,1.32-1.06,2.76-1.06,4.34s.37,3.09,1.1,4.41c.74,1.3,1.72,2.35,2.95,3.13,1.23.76,2.58,1.14,4.05,1.14ZM271.32,1377.78h-5.38l-.02,19.35h-3.15l.02-19.35h-4.07v-3.15h4.07l-.02-7.07h3.15l.02,7.07h5.38v3.15ZM295.01,1374.62h3.15v22.5h-3.15l-.11-4.19c-.73,1.43-1.76,2.58-3.08,3.47-1.32.87-2.89,1.31-4.72,1.31-1.65,0-3.2-.31-4.64-.93-1.44-.63-2.71-1.49-3.8-2.59-1.1-1.09-1.95-2.36-2.57-3.8-.61-1.44-.92-2.98-.92-4.63s.3-3.15.9-4.57c.62-1.43,1.46-2.68,2.52-3.76,1.08-1.08,2.32-1.92,3.73-2.52,1.43-.61,2.95-.92,4.57-.92,1.88,0,3.51.45,4.9,1.35,1.39.88,2.51,2.05,3.33,3.49l-.11-4.21ZM287.02,1394.65c1.61,0,2.99-.39,4.14-1.17,1.15-.79,2.04-1.86,2.65-3.19.63-1.34.95-2.81.95-4.41s-.32-3.14-.95-4.46c-.63-1.33-1.52-2.39-2.68-3.17s-2.53-1.17-4.12-1.17-3.04.4-4.36,1.19c-1.3.78-2.35,1.84-3.13,3.18-.77,1.33-1.15,2.81-1.15,4.43s.4,3.12,1.19,4.45c.8,1.32,1.85,2.37,3.15,3.15,1.32.78,2.75,1.17,4.3,1.17ZM304.77,1397.12v-33.75h3.15v33.75h-3.15ZM338.75,1397.71c-1.68,0-3.31-.27-4.88-.79-1.56-.53-2.93-1.28-4.1-2.25-1.17-.98-1.99-2.14-2.48-3.49l2.95-1.1c.33.93.93,1.73,1.8,2.4.88.66,1.91,1.17,3.08,1.53,1.18.36,2.39.54,3.62.54,1.44,0,2.78-.24,4.03-.72,1.24-.48,2.25-1.14,3.01-2,.77-.87,1.15-1.89,1.15-3.06s-.4-2.16-1.19-2.92c-.8-.77-1.82-1.37-3.08-1.8-1.24-.45-2.55-.8-3.92-1.04-2.14-.37-4.07-.88-5.78-1.53-1.69-.64-3.04-1.55-4.03-2.72-.99-1.19-1.48-2.75-1.48-4.68,0-1.82.52-3.39,1.57-4.73,1.05-1.33,2.43-2.37,4.14-3.1,1.72-.74,3.58-1.1,5.58-1.1,1.64,0,3.23.25,4.79.76s2.93,1.25,4.12,2.23c1.2.97,2.06,2.17,2.59,3.58l-2.99,1.08c-.33-.95-.94-1.75-1.82-2.41-.87-.68-1.89-1.19-3.06-1.53-1.17-.36-2.38-.54-3.62-.54-1.42-.02-2.76.22-4.01.72-1.23.48-2.23,1.15-2.99,2.02-.76.86-1.15,1.86-1.15,3.02,0,1.35.35,2.39,1.06,3.13.72.72,1.7,1.26,2.93,1.62,1.23.36,2.62.68,4.16.96,2.01.35,3.88.89,5.6,1.62,1.73.72,3.11,1.69,4.16,2.91,1.05,1.2,1.57,2.68,1.57,4.45s-.52,3.38-1.57,4.73c-1.05,1.33-2.44,2.37-4.16,3.1-1.71.74-3.58,1.11-5.6,1.11ZM359.95,1408.38h-3.15v-33.75h3.15v4.21c.78-1.43,1.85-2.58,3.2-3.47,1.35-.88,2.95-1.33,4.82-1.33,1.63,0,3.16.31,4.59.93,1.44.61,2.7,1.47,3.78,2.56,1.08,1.08,1.93,2.33,2.54,3.76.61,1.42.92,2.95.92,4.59s-.31,3.17-.92,4.61c-.61,1.44-1.46,2.71-2.54,3.8-1.08,1.08-2.34,1.93-3.78,2.55-1.43.61-2.96.92-4.59.92-1.86,0-3.46-.44-4.82-1.33-1.35-.88-2.42-2.04-3.2-3.46v15.41ZM367.94,1377.09c-1.58,0-2.95.4-4.12,1.2-1.15.78-2.05,1.83-2.68,3.15-.63,1.32-.94,2.79-.94,4.43s.31,3.07.92,4.41c.63,1.33,1.52,2.4,2.68,3.19,1.17.8,2.55,1.2,4.14,1.2s2.99-.39,4.3-1.17c1.32-.78,2.38-1.83,3.17-3.15.79-1.34,1.19-2.83,1.19-4.48s-.39-3.07-1.17-4.39c-.78-1.33-1.82-2.4-3.13-3.19-1.3-.8-2.76-1.2-4.36-1.2ZM395.08,1397.71c-2.07,0-3.96-.54-5.67-1.6-1.7-1.07-3.05-2.49-4.07-4.28-1.01-1.8-1.51-3.79-1.51-5.96,0-1.65.29-3.19.88-4.61.58-1.44,1.39-2.7,2.41-3.78,1.04-1.1,2.24-1.95,3.6-2.57,1.36-.61,2.82-.92,4.36-.92,1.67,0,3.2.33,4.59.99,1.41.66,2.62,1.58,3.62,2.77,1.02,1.18,1.79,2.57,2.3,4.16.52,1.59.74,3.31.65,5.15h-19.08c.18,1.43.63,2.7,1.35,3.83.73,1.12,1.66,2.01,2.79,2.67,1.14.65,2.4.98,3.78.99,1.5,0,2.85-.39,4.05-1.17,1.21-.78,2.19-1.85,2.92-3.21l3.2.74c-.9,1.99-2.26,3.63-4.07,4.9-1.82,1.26-3.85,1.9-6.1,1.9ZM387.08,1384.53h16c-.1-1.4-.53-2.67-1.28-3.83-.74-1.17-1.69-2.1-2.86-2.79-1.17-.7-2.45-1.05-3.85-1.05s-2.67.34-3.82,1.03c-1.15.68-2.1,1.6-2.84,2.77-.73,1.15-1.18,2.44-1.35,3.87ZM431.52,1383.19v13.93h-3.15v-13.3c0-1.23-.3-2.35-.9-3.35-.6-1.01-1.4-1.81-2.41-2.41-1.01-.6-2.12-.9-3.35-.9s-2.33.3-3.35.9c-1.01.6-1.81,1.4-2.41,2.41-.6,1-.9,2.12-.9,3.35v13.3h-3.15v-22.5h3.15v3.1c.79-1.14,1.83-2.04,3.11-2.72,1.27-.67,2.66-1.01,4.16-1.01,1.7,0,3.24.41,4.64,1.24,1.39.82,2.51,1.93,3.33,3.33.83,1.39,1.24,2.94,1.24,4.63ZM449.33,1377.78h-5.38l-.02,19.35h-3.15l.02-19.35h-4.07v-3.15h4.07l-.02-7.07h3.15l.02,7.07h5.38v3.15ZM456.02,1378.22c-.49,0-.92-.17-1.26-.52-.35-.36-.52-.79-.52-1.3,0-.48.17-.9.52-1.24.35-.36.77-.54,1.26-.54s.94.18,1.28.54c.36.34.54.76.54,1.24,0,.51-.18.94-.54,1.3-.35.35-.77.52-1.28.52ZM456.02,1397.71c-.49,0-.92-.18-1.26-.54-.35-.35-.52-.78-.52-1.29,0-.48.17-.89.52-1.24.35-.36.77-.54,1.26-.54s.94.18,1.28.54c.36.35.54.76.54,1.24,0,.51-.18.94-.54,1.29-.35.36-.77.54-1.28.54ZM476.74,1397.12v-2.79c1.23-1.14,2.58-2.39,4.05-3.74,1.47-1.36,2.93-2.76,4.37-4.2,1.45-1.46,2.78-2.89,3.98-4.3,1.2-1.43,2.16-2.77,2.88-4.03.73-1.27,1.1-2.4,1.1-3.37,0-1.19-.29-2.27-.88-3.24-.57-.99-1.34-1.78-2.32-2.37-.96-.6-2.03-.9-3.22-.9s-2.27.3-3.26.9c-.97.59-1.75,1.38-2.34,2.37-.58.97-.88,2.05-.88,3.24h-3.15c0-1.8.43-3.43,1.3-4.89.89-1.45,2.05-2.61,3.51-3.46,1.45-.87,3.06-1.31,4.81-1.31s3.35.44,4.79,1.31c1.45.87,2.61,2.03,3.46,3.49.87,1.45,1.3,3.07,1.3,4.86,0,1.06-.29,2.23-.86,3.51-.55,1.26-1.31,2.57-2.27,3.93-.96,1.35-2.04,2.72-3.24,4.1-1.2,1.38-2.45,2.73-3.76,4.05-1.3,1.3-2.57,2.53-3.8,3.69h14.4v3.15h-20ZM503.06,1399.65l1.4-7.61h3.15l-2.45,7.61h-2.09ZM513.91,1397.12v-2.79c1.23-1.14,2.58-2.39,4.05-3.74,1.47-1.36,2.92-2.76,4.36-4.2,1.46-1.46,2.78-2.89,3.98-4.3,1.2-1.43,2.16-2.77,2.88-4.03.73-1.27,1.1-2.4,1.1-3.37,0-1.19-.29-2.27-.88-3.24-.57-.99-1.34-1.78-2.32-2.37-.96-.6-2.03-.9-3.22-.9s-2.27.3-3.26.9c-.98.59-1.76,1.38-2.34,2.37-.59.97-.88,2.05-.88,3.24h-3.15c0-1.8.43-3.43,1.3-4.89.89-1.45,2.05-2.61,3.51-3.46,1.45-.87,3.06-1.31,4.82-1.31s3.35.44,4.79,1.31c1.45.87,2.61,2.03,3.46,3.49.87,1.45,1.3,3.07,1.3,4.86,0,1.06-.28,2.23-.85,3.51-.55,1.26-1.31,2.57-2.27,3.93-.96,1.35-2.04,2.72-3.24,4.1-1.2,1.38-2.45,2.73-3.76,4.05-1.3,1.3-2.57,2.53-3.8,3.69h14.4v3.15h-20ZM543.61,1397.12v-28.35h-3.38l.9-3.15h5.62v31.5h-3.15ZM589.21,1397.46c-2.04.37-4.01.34-5.92-.09-1.91-.42-3.66-1.18-5.27-2.28-1.59-1.09-2.96-2.45-4.1-4.07-1.12-1.63-1.93-3.46-2.43-5.46h-4.95v-2.41h4.52v-3.54h-4.52v-2.4h4.95c.51-2.04,1.34-3.88,2.48-5.51,1.15-1.64,2.53-3,4.14-4.08,1.61-1.09,3.35-1.85,5.24-2.27,1.89-.44,3.84-.47,5.85-.09v3.22c-1.64-.36-3.21-.4-4.73-.12-1.5.29-2.89.84-4.16,1.65-1.28.81-2.39,1.83-3.33,3.06-.93,1.23-1.64,2.61-2.11,4.14h7.45v2.4h-8.05v3.54h8.05v2.41h-7.42c.48,1.55,1.19,2.95,2.14,4.18.94,1.23,2.05,2.24,3.33,3.04,1.29.79,2.68,1.32,4.18,1.59,1.52.26,3.07.21,4.66-.15v3.24ZM617.53,1397.12h-3.24l-7.54-22.5h3.08l6.12,18.13,6.08-18.13h3.33l6.08,18.13,6.07-18.13h3.11l-7.54,22.5h-3.26l-6.16-18.32-6.12,18.32ZM666.08,1383.19v13.93h-3.15v-13.3c0-1.23-.3-2.35-.9-3.35-.6-1.01-1.4-1.81-2.41-2.41-1.01-.6-2.12-.9-3.35-.9s-2.33.3-3.35.9c-1.01.6-1.81,1.4-2.41,2.41-.6,1-.9,2.12-.9,3.35v13.3h-3.15v-33.75h3.15v14.35c.79-1.14,1.83-2.04,3.1-2.72,1.28-.67,2.66-1.01,4.16-1.01,1.7,0,3.24.41,4.64,1.24,1.4.82,2.51,1.93,3.33,3.33.83,1.39,1.24,2.94,1.24,4.63ZM672.39,1374.62h3.15v22.5h-3.15v-22.5ZM673.98,1370.69c-.51,0-.95-.16-1.3-.49-.35-.35-.52-.78-.52-1.29s.17-.93.52-1.26c.36-.34.79-.51,1.3-.51s.91.17,1.26.51c.36.33.54.75.54,1.26s-.17.94-.52,1.29c-.35.33-.77.49-1.28.49ZM698.6,1391.47l2.81,1.53c-1.02,1.43-2.32,2.57-3.89,3.42-1.56.86-3.25,1.29-5.08,1.29-2.07,0-3.96-.54-5.67-1.6-1.7-1.07-3.05-2.49-4.07-4.28-1-1.8-1.51-3.79-1.51-5.96,0-1.65.29-3.19.88-4.61.58-1.44,1.39-2.7,2.41-3.78,1.04-1.1,2.23-1.95,3.6-2.57,1.36-.61,2.82-.92,4.36-.92,1.83,0,3.52.43,5.08,1.28,1.58.86,2.87,2,3.89,3.44l-2.81,1.51c-.78-.99-1.72-1.75-2.81-2.27-1.1-.54-2.21-.81-3.35-.81-1.52,0-2.89.4-4.12,1.21-1.23.8-2.2,1.86-2.92,3.18-.7,1.32-1.06,2.76-1.06,4.34s.36,3.02,1.08,4.34c.73,1.32,1.72,2.38,2.95,3.17,1.23.78,2.59,1.17,4.07,1.17,1.23,0,2.39-.28,3.46-.85,1.08-.57,1.98-1.31,2.7-2.23ZM726.59,1383.19v13.93h-3.15v-13.3c0-1.23-.3-2.35-.9-3.35-.6-1.01-1.4-1.81-2.41-2.41-1.01-.6-2.12-.9-3.35-.9s-2.33.3-3.35.9c-1.01.6-1.81,1.4-2.41,2.41-.6,1-.9,2.12-.9,3.35v13.3h-3.15v-33.75h3.15v14.35c.8-1.14,1.83-2.04,3.11-2.72,1.27-.67,2.66-1.01,4.16-1.01,1.7,0,3.24.41,4.64,1.24,1.4.82,2.51,1.93,3.33,3.33.83,1.39,1.24,2.94,1.24,4.63ZM745.51,1374.62h3.15v22.5h-3.15v-22.5ZM747.1,1370.69c-.51,0-.95-.16-1.3-.49-.34-.35-.52-.78-.52-1.29s.17-.93.52-1.26c.36-.34.79-.51,1.3-.51s.92.17,1.26.51c.36.33.54.75.54,1.26s-.17.94-.52,1.29c-.35.33-.77.49-1.28.49ZM762.65,1397.56c-1.23-.03-2.43-.26-3.6-.68-1.17-.42-2.19-.99-3.06-1.71-.87-.72-1.49-1.54-1.87-2.45l2.72-1.17c.24.58.68,1.12,1.33,1.62.66.48,1.41.87,2.25,1.17.84.28,1.67.43,2.5.43.91,0,1.77-.15,2.57-.45.79-.3,1.44-.73,1.93-1.29.51-.57.76-1.23.76-2,0-.82-.27-1.47-.81-1.93-.54-.48-1.22-.86-2.05-1.13-.83-.28-1.67-.55-2.54-.81-1.59-.43-2.99-.91-4.21-1.44-1.22-.52-2.17-1.19-2.86-2-.67-.83-1.01-1.88-1.01-3.17,0-1.37.38-2.55,1.15-3.54.78-1,1.79-1.77,3.04-2.31,1.26-.56,2.6-.84,4.03-.84,1.83,0,3.49.4,4.99,1.2,1.52.79,2.61,1.85,3.28,3.17l-2.54,1.51c-.27-.62-.7-1.15-1.28-1.6-.58-.45-1.25-.8-2-1.06-.73-.25-1.48-.39-2.25-.4-.96-.02-1.85.12-2.68.42-.83.29-1.49.72-2,1.29-.49.57-.74,1.26-.74,2.09s.25,1.45.74,1.89c.49.42,1.16.76,2,1.03.86.26,1.82.56,2.88.9,1.36.44,2.65.93,3.85,1.49,1.2.55,2.17,1.24,2.9,2.07.73.82,1.1,1.87,1.08,3.13,0,1.35-.41,2.52-1.22,3.53-.81,1-1.86,1.78-3.15,2.32-1.29.52-2.67.76-4.14.72ZM791.92,1397.12v-28.35h-3.38l.9-3.15h5.62v31.5h-3.15ZM812.29,1397.71c-1.85,0-3.53-.43-5.06-1.27-1.52-.84-2.72-1.96-3.62-3.37-.9-1.41-1.35-2.98-1.35-4.7s.46-3.21,1.39-4.59c.93-1.4,2.14-2.48,3.62-3.24-1.23-.71-2.24-1.67-3.04-2.88-.79-1.23-1.19-2.58-1.19-4.05,0-1.58.41-3.01,1.24-4.3.84-1.31,1.96-2.34,3.35-3.11,1.41-.78,2.96-1.17,4.66-1.17s3.24.39,4.64,1.17c1.41.77,2.53,1.8,3.35,3.11.84,1.29,1.26,2.72,1.26,4.3,0,1.47-.4,2.82-1.19,4.05-.78,1.21-1.79,2.17-3.04,2.88,1.52.76,2.73,1.84,3.65,3.24.93,1.38,1.39,2.91,1.39,4.59s-.46,3.27-1.37,4.7c-.9,1.41-2.11,2.53-3.62,3.37-1.52.84-3.2,1.27-5.06,1.27ZM812.29,1394.56c1.24,0,2.37-.27,3.38-.83,1.01-.55,1.81-1.3,2.41-2.22.6-.95.9-1.99.9-3.13s-.3-2.18-.9-3.11c-.6-.93-1.4-1.67-2.41-2.23-1.01-.55-2.13-.83-3.38-.83s-2.33.28-3.35.83c-1.01.56-1.82,1.3-2.43,2.23-.6.93-.9,1.97-.9,3.11s.3,2.18.9,3.13c.61.92,1.42,1.67,2.43,2.22,1.02.56,2.14.83,3.35.83ZM812.29,1379.06c1.09,0,2.09-.24,2.97-.72.89-.49,1.59-1.15,2.12-1.98.54-.82.81-1.74.81-2.74s-.27-1.92-.81-2.73c-.53-.82-1.23-1.47-2.12-1.95-.88-.5-1.88-.75-2.97-.75s-2.07.25-2.97.75c-.88.48-1.6,1.13-2.14,1.95-.53.81-.79,1.72-.79,2.73s.26,1.92.79,2.74c.54.83,1.25,1.49,2.14,1.98.9.48,1.89.72,2.97.72ZM827.74,1399.65l1.39-7.61h3.15l-2.45,7.61h-2.09ZM848.63,1397.71c-1.84,0-3.53-.43-5.06-1.27-1.51-.84-2.72-1.96-3.62-3.37-.9-1.41-1.35-2.98-1.35-4.7s.46-3.21,1.39-4.59c.93-1.4,2.14-2.48,3.62-3.24-1.23-.71-2.24-1.67-3.04-2.88-.79-1.23-1.19-2.58-1.19-4.05,0-1.58.41-3.01,1.24-4.3.84-1.31,1.96-2.34,3.35-3.11,1.41-.78,2.96-1.17,4.66-1.17s3.24.39,4.64,1.17c1.41.77,2.53,1.8,3.35,3.11.84,1.29,1.26,2.72,1.26,4.3,0,1.47-.4,2.82-1.19,4.05-.78,1.21-1.79,2.17-3.04,2.88,1.52.76,2.73,1.84,3.65,3.24.93,1.38,1.39,2.91,1.39,4.59s-.46,3.27-1.37,4.7c-.9,1.41-2.11,2.53-3.62,3.37-1.51.84-3.2,1.27-5.06,1.27ZM848.63,1394.56c1.24,0,2.37-.27,3.38-.83,1.01-.55,1.81-1.3,2.41-2.22.6-.95.9-1.99.9-3.13s-.3-2.18-.9-3.11c-.6-.93-1.4-1.67-2.41-2.23-1.01-.55-2.13-.83-3.38-.83s-2.33.28-3.35.83c-1.01.56-1.82,1.3-2.43,2.23-.6.93-.9,1.97-.9,3.11s.3,2.18.9,3.13c.61.92,1.42,1.67,2.43,2.22,1.02.56,2.14.83,3.35.83ZM848.63,1379.06c1.1,0,2.09-.24,2.97-.72.88-.49,1.59-1.15,2.11-1.98.54-.82.81-1.74.81-2.74s-.27-1.92-.81-2.73c-.53-.82-1.23-1.47-2.11-1.95-.89-.5-1.88-.75-2.97-.75s-2.07.25-2.97.75c-.89.48-1.6,1.13-2.14,1.95-.53.81-.79,1.72-.79,2.73s.26,1.92.79,2.74c.54.83,1.25,1.49,2.14,1.98.9.48,1.89.72,2.97.72ZM874.11,1397.71c-1.84,0-3.53-.43-5.06-1.27-1.52-.84-2.72-1.96-3.62-3.37-.9-1.41-1.35-2.98-1.35-4.7s.46-3.21,1.39-4.59c.93-1.4,2.14-2.48,3.62-3.24-1.23-.71-2.24-1.67-3.04-2.88-.79-1.23-1.19-2.58-1.19-4.05,0-1.58.41-3.01,1.24-4.3.84-1.31,1.96-2.34,3.35-3.11,1.41-.78,2.96-1.17,4.66-1.17s3.24.39,4.64,1.17c1.41.77,2.53,1.8,3.35,3.11.84,1.29,1.26,2.72,1.26,4.3,0,1.47-.4,2.82-1.19,4.05-.78,1.21-1.79,2.17-3.04,2.88,1.51.76,2.73,1.84,3.64,3.24.93,1.38,1.4,2.91,1.4,4.59s-.46,3.27-1.37,4.7c-.9,1.41-2.11,2.53-3.62,3.37-1.52.84-3.2,1.27-5.06,1.27ZM874.11,1394.56c1.24,0,2.37-.27,3.38-.83,1.01-.55,1.81-1.3,2.41-2.22.6-.95.9-1.99.9-3.13s-.3-2.18-.9-3.11c-.6-.93-1.4-1.67-2.41-2.23-1.01-.55-2.13-.83-3.38-.83s-2.33.28-3.35.83c-1.01.56-1.82,1.3-2.43,2.23-.6.93-.9,1.97-.9,3.11s.3,2.18.9,3.13c.62.92,1.43,1.67,2.43,2.22,1.02.56,2.14.83,3.35.83ZM874.11,1379.06c1.1,0,2.09-.24,2.97-.72.88-.49,1.59-1.15,2.11-1.98.54-.82.81-1.74.81-2.74s-.27-1.92-.81-2.73c-.53-.82-1.23-1.47-2.11-1.95-.89-.5-1.88-.75-2.97-.75s-2.07.25-2.97.75c-.89.48-1.6,1.13-2.14,1.95-.53.81-.79,1.72-.79,2.73s.26,1.92.79,2.74c.54.83,1.25,1.49,2.14,1.98.9.48,1.89.72,2.97.72ZM924.83,1397.46c-2.04.37-4.01.34-5.92-.09-1.9-.42-3.66-1.18-5.27-2.28-1.59-1.09-2.95-2.45-4.09-4.07-1.12-1.63-1.93-3.46-2.43-5.46h-4.95v-2.41h4.52v-3.54h-4.52v-2.4h4.95c.51-2.04,1.33-3.88,2.47-5.51,1.16-1.64,2.54-3,4.14-4.08,1.6-1.09,3.35-1.85,5.24-2.27,1.89-.44,3.84-.47,5.85-.09v3.22c-1.64-.36-3.21-.4-4.72-.12-1.5.29-2.89.84-4.16,1.65-1.28.81-2.39,1.83-3.33,3.06-.93,1.23-1.64,2.61-2.11,4.14h7.45v2.4h-8.05v3.54h8.05v2.41h-7.42c.48,1.55,1.19,2.95,2.14,4.18s2.05,2.24,3.33,3.04c1.29.79,2.68,1.32,4.18,1.59,1.52.26,3.07.21,4.66-.15v3.24ZM206.82,1451.12v-33.75h3.15v33.75h-3.15ZM226.92,1451.71c-2.07,0-3.96-.54-5.67-1.6-1.69-1.07-3.05-2.49-4.07-4.28-1-1.8-1.51-3.79-1.51-5.96,0-1.65.29-3.19.88-4.61.58-1.44,1.39-2.7,2.41-3.78,1.04-1.1,2.24-1.95,3.6-2.57,1.37-.61,2.82-.92,4.37-.92,2.07,0,3.95.53,5.65,1.6,1.71,1.06,3.07,2.49,4.07,4.29,1.02,1.8,1.53,3.8,1.53,5.99,0,1.63-.29,3.16-.88,4.59-.59,1.42-1.4,2.68-2.43,3.78-1.02,1.08-2.21,1.93-3.58,2.54-1.35.62-2.8.93-4.36.93ZM226.92,1448.56c1.53,0,2.9-.39,4.12-1.19,1.23-.81,2.2-1.87,2.9-3.19.72-1.32,1.08-2.76,1.08-4.3s-.36-3.02-1.08-4.34c-.72-1.34-1.69-2.4-2.92-3.2-1.22-.79-2.58-1.19-4.1-1.19s-2.91.4-4.14,1.21c-1.22.8-2.18,1.86-2.9,3.18-.71,1.32-1.06,2.76-1.06,4.34s.37,3.09,1.1,4.41c.74,1.3,1.72,2.35,2.95,3.13,1.23.76,2.58,1.14,4.05,1.14ZM252.24,1451.12h-3.24l-7.54-22.5h3.08l6.12,18.13,6.07-18.13h3.33l6.07,18.13,6.08-18.13h3.11l-7.54,22.5h-3.26l-6.17-18.32-6.12,18.32ZM289.89,1451.71c-2.07,0-3.96-.54-5.67-1.6-1.7-1.07-3.05-2.49-4.07-4.28-1.01-1.8-1.51-3.79-1.51-5.96,0-1.65.29-3.19.88-4.61.59-1.44,1.39-2.7,2.41-3.78,1.04-1.1,2.23-1.95,3.6-2.57,1.37-.61,2.82-.92,4.37-.92,1.66,0,3.2.33,4.59.99,1.41.66,2.62,1.58,3.62,2.77,1.02,1.18,1.78,2.57,2.29,4.16.52,1.59.74,3.31.65,5.15h-19.08c.18,1.43.63,2.7,1.35,3.83.73,1.12,1.67,2.01,2.79,2.67,1.14.65,2.4.98,3.78.99,1.5,0,2.85-.39,4.05-1.17,1.21-.78,2.19-1.85,2.93-3.21l3.19.74c-.9,1.99-2.26,3.63-4.07,4.9-1.82,1.26-3.85,1.9-6.1,1.9ZM281.88,1438.53h16c-.11-1.4-.53-2.67-1.28-3.83-.73-1.17-1.69-2.1-2.86-2.79-1.17-.7-2.45-1.05-3.85-1.05s-2.67.34-3.83,1.03c-1.15.68-2.1,1.6-2.83,2.77-.74,1.15-1.18,2.44-1.35,3.87ZM306.71,1451.12v-22.5h3.15v3.1c.8-1.14,1.83-2.04,3.11-2.72,1.27-.67,2.66-1.01,4.16-1.01.87,0,1.71.11,2.52.34l-1.28,3.12c-.63-.19-1.24-.29-1.85-.29-1.21,0-2.33.3-3.35.9-1.01.6-1.81,1.4-2.41,2.41-.6,1-.9,2.12-.9,3.35v13.3h-3.15ZM348.7,1431.78h-5.38l-.02,19.35h-3.15l.02-19.35h-4.07v-3.15h4.07l-.02-7.07h3.15l.02,7.07h5.38v3.15ZM374.13,1437.19v13.93h-3.15v-13.3c0-1.23-.3-2.35-.9-3.35-.6-1.01-1.4-1.81-2.41-2.41-1-.6-2.12-.9-3.35-.9s-2.33.3-3.35.9c-1.01.6-1.81,1.4-2.41,2.41-.6,1-.9,2.12-.9,3.35v13.3h-3.15v-33.75h3.15v14.35c.8-1.14,1.83-2.04,3.11-2.72,1.27-.67,2.66-1.01,4.16-1.01,1.7,0,3.24.41,4.64,1.24,1.39.82,2.51,1.93,3.33,3.33.83,1.39,1.24,2.94,1.24,4.63ZM398.49,1428.62h3.15v22.5h-3.15l-.11-4.19c-.73,1.43-1.76,2.58-3.08,3.47-1.32.87-2.9,1.31-4.73,1.31-1.65,0-3.2-.31-4.64-.93-1.44-.63-2.71-1.49-3.8-2.59-1.1-1.09-1.95-2.36-2.57-3.8-.61-1.44-.92-2.98-.92-4.63s.3-3.15.9-4.57c.61-1.43,1.45-2.68,2.52-3.76,1.08-1.08,2.33-1.92,3.73-2.52,1.43-.61,2.95-.92,4.57-.92,1.88,0,3.51.45,4.9,1.35,1.39.88,2.51,2.05,3.33,3.49l-.11-4.21ZM390.51,1448.65c1.61,0,2.99-.39,4.14-1.17,1.15-.79,2.04-1.86,2.65-3.19.63-1.34.95-2.81.95-4.41s-.32-3.14-.95-4.46c-.63-1.33-1.52-2.39-2.68-3.17s-2.53-1.17-4.12-1.17-3.04.4-4.36,1.19c-1.3.78-2.35,1.84-3.13,3.18-.77,1.33-1.15,2.81-1.15,4.43s.4,3.12,1.19,4.45c.8,1.32,1.85,2.37,3.15,3.15,1.32.78,2.75,1.17,4.3,1.17ZM427.57,1437.19v13.93h-3.15v-13.3c0-1.23-.3-2.35-.9-3.35-.6-1.01-1.4-1.81-2.41-2.41-1.01-.6-2.12-.9-3.35-.9s-2.33.3-3.35.9c-1.01.6-1.81,1.4-2.41,2.41-.6,1-.9,2.12-.9,3.35v13.3h-3.15v-22.5h3.15v3.1c.8-1.14,1.83-2.04,3.11-2.72,1.27-.67,2.66-1.01,4.16-1.01,1.69,0,3.24.41,4.63,1.24,1.4.82,2.51,1.93,3.33,3.33.82,1.39,1.24,2.94,1.24,4.63ZM461.9,1428.62h3.33l-12.31,33.75h-3.35l4.1-11.25-8.08-22.5h3.44l6.21,18.16,6.66-18.16ZM480.07,1451.71c-2.07,0-3.96-.54-5.67-1.6-1.7-1.07-3.05-2.49-4.07-4.28-1-1.8-1.51-3.79-1.51-5.96,0-1.65.29-3.19.88-4.61.58-1.44,1.39-2.7,2.41-3.78,1.04-1.1,2.24-1.95,3.6-2.57,1.36-.61,2.82-.92,4.36-.92,1.67,0,3.2.33,4.59.99,1.41.66,2.62,1.58,3.62,2.77,1.02,1.18,1.79,2.57,2.29,4.16.53,1.59.74,3.31.65,5.15h-19.08c.18,1.43.63,2.7,1.35,3.83.74,1.12,1.67,2.01,2.79,2.67,1.14.65,2.4.98,3.78.99,1.5,0,2.85-.39,4.05-1.17,1.21-.78,2.19-1.85,2.92-3.21l3.2.74c-.9,1.99-2.26,3.63-4.07,4.9-1.81,1.26-3.85,1.9-6.1,1.9ZM472.06,1438.53h16c-.11-1.4-.53-2.67-1.28-3.83-.74-1.17-1.69-2.1-2.86-2.79-1.17-.7-2.45-1.05-3.85-1.05s-2.67.34-3.82,1.03c-1.15.68-2.1,1.6-2.84,2.77-.73,1.15-1.18,2.44-1.35,3.87ZM503.88,1451.56c-1.23-.03-2.43-.26-3.6-.68-1.17-.42-2.19-.99-3.06-1.71-.87-.72-1.49-1.54-1.87-2.45l2.72-1.17c.24.58.68,1.12,1.33,1.62.66.48,1.41.87,2.25,1.17.84.28,1.67.43,2.5.43.91,0,1.77-.15,2.57-.45.79-.3,1.44-.73,1.93-1.29.51-.57.76-1.23.76-2,0-.82-.27-1.47-.81-1.93-.54-.48-1.22-.86-2.05-1.13-.82-.28-1.67-.55-2.54-.81-1.59-.43-2.99-.91-4.21-1.44-1.21-.52-2.17-1.19-2.86-2-.67-.83-1.01-1.88-1.01-3.17,0-1.37.38-2.55,1.15-3.54.78-1,1.79-1.77,3.04-2.31,1.26-.56,2.6-.84,4.03-.84,1.83,0,3.49.4,4.99,1.2,1.51.79,2.61,1.85,3.29,3.17l-2.54,1.51c-.27-.62-.7-1.15-1.28-1.6s-1.25-.8-2-1.06c-.74-.25-1.49-.39-2.25-.4-.96-.02-1.85.12-2.68.42-.83.29-1.49.72-2,1.29-.5.57-.74,1.26-.74,2.09s.25,1.45.74,1.89c.49.42,1.16.76,2,1.03.86.26,1.82.56,2.88.9,1.36.44,2.65.93,3.85,1.49,1.2.55,2.17,1.24,2.9,2.07.73.82,1.09,1.87,1.08,3.13,0,1.35-.41,2.52-1.22,3.53-.81,1-1.86,1.78-3.15,2.32-1.29.52-2.67.76-4.14.72ZM529.56,1431.78h-5.38l-.02,19.35h-3.15l.02-19.35h-4.07v-3.15h4.07l-.02-7.07h3.15l.02,7.07h5.38v3.15ZM544.66,1451.71c-2.07,0-3.96-.54-5.67-1.6-1.7-1.07-3.05-2.49-4.07-4.28-1.01-1.8-1.51-3.79-1.51-5.96,0-1.65.29-3.19.88-4.61.59-1.44,1.39-2.7,2.41-3.78,1.03-1.1,2.23-1.95,3.6-2.57,1.37-.61,2.82-.92,4.37-.92,1.66,0,3.19.33,4.59.99,1.41.66,2.62,1.58,3.62,2.77,1.02,1.18,1.78,2.57,2.29,4.16.53,1.59.74,3.31.65,5.15h-19.08c.18,1.43.63,2.7,1.35,3.83.73,1.12,1.66,2.01,2.79,2.67,1.14.65,2.4.98,3.78.99,1.5,0,2.85-.39,4.05-1.17,1.21-.78,2.19-1.85,2.92-3.21l3.2.74c-.9,1.99-2.26,3.63-4.07,4.9-1.82,1.26-3.85,1.9-6.1,1.9ZM536.65,1438.53h16c-.11-1.4-.53-2.67-1.28-3.83-.73-1.17-1.69-2.1-2.86-2.79-1.17-.7-2.45-1.05-3.85-1.05s-2.67.34-3.83,1.03c-1.16.68-2.1,1.6-2.84,2.77-.73,1.15-1.18,2.44-1.35,3.87ZM561.48,1451.12v-22.5h3.15v3.1c.79-1.14,1.83-2.04,3.1-2.72,1.27-.67,2.66-1.01,4.16-1.01.87,0,1.71.11,2.52.34l-1.28,3.12c-.63-.19-1.24-.29-1.84-.29-1.22,0-2.33.3-3.35.9-1.01.6-1.81,1.4-2.41,2.41-.6,1-.9,2.12-.9,3.35v13.3h-3.15ZM596.39,1417.38h3.15v33.75h-3.15v-4.21c-.78,1.44-1.85,2.6-3.22,3.49-1.35.87-2.96,1.31-4.82,1.31-1.64,0-3.16-.31-4.59-.93-1.42-.61-2.68-1.46-3.78-2.54-1.08-1.1-1.93-2.36-2.54-3.78-.61-1.43-.92-2.96-.92-4.59s.31-3.17.92-4.59c.61-1.44,1.46-2.7,2.54-3.78,1.09-1.1,2.35-1.95,3.78-2.57,1.43-.61,2.96-.92,4.59-.92,1.86,0,3.46.44,4.82,1.33,1.36.87,2.44,2.02,3.22,3.44v-15.41ZM588.38,1448.65c1.6,0,2.98-.39,4.14-1.17,1.15-.79,2.04-1.86,2.65-3.19.63-1.34.95-2.81.95-4.41s-.32-3.14-.95-4.46c-.63-1.33-1.52-2.39-2.68-3.17-1.16-.78-2.53-1.17-4.12-1.17s-3.04.4-4.34,1.19c-1.3.78-2.35,1.84-3.13,3.18-.78,1.33-1.17,2.81-1.17,4.43s.4,3.12,1.19,4.45c.79,1.32,1.84,2.37,3.15,3.15,1.32.78,2.75,1.17,4.3,1.17ZM625.06,1428.62h3.15v22.5h-3.15l-.11-4.19c-.73,1.43-1.76,2.58-3.08,3.47-1.32.87-2.9,1.31-4.73,1.31-1.65,0-3.2-.31-4.63-.93-1.44-.63-2.71-1.49-3.8-2.59-1.09-1.09-1.95-2.36-2.57-3.8-.61-1.44-.92-2.98-.92-4.63s.3-3.15.9-4.57c.61-1.43,1.45-2.68,2.52-3.76,1.08-1.08,2.33-1.92,3.74-2.52,1.42-.61,2.95-.92,4.57-.92,1.88,0,3.51.45,4.91,1.35,1.4.88,2.51,2.05,3.33,3.49l-.11-4.21ZM617.07,1448.65c1.61,0,2.99-.39,4.14-1.17,1.16-.79,2.04-1.86,2.66-3.19.63-1.34.94-2.81.94-4.41s-.32-3.14-.94-4.46c-.63-1.33-1.52-2.39-2.68-3.17-1.16-.78-2.53-1.17-4.12-1.17s-3.04.4-4.36,1.19c-1.3.78-2.35,1.84-3.13,3.18-.76,1.33-1.15,2.81-1.15,4.43s.4,3.12,1.19,4.45c.79,1.32,1.84,2.37,3.15,3.15,1.32.78,2.75,1.17,4.3,1.17ZM649.4,1428.62h3.33l-12.31,33.75h-3.35l4.1-11.25-8.08-22.5h3.44l6.21,18.16,6.66-18.16ZM658.33,1451.71c-.5,0-.92-.18-1.26-.54-.35-.35-.52-.78-.52-1.29,0-.48.17-.89.52-1.24.34-.36.76-.54,1.26-.54s.94.18,1.28.54c.36.35.54.76.54,1.24,0,.51-.18.94-.54,1.29-.35.36-.77.54-1.28.54Z" fill="#fff" stroke="#000" stroke-miterlimit="10" stroke-width=".25"/>
      <path id="now_2" data-name="now 2" d="M997.06,1330.74v12.38h-2.8v-11.82c0-1.09-.27-2.09-.8-2.98-.53-.89-1.25-1.61-2.14-2.14-.89-.53-1.89-.8-2.98-.8s-2.07.27-2.98.8c-.89.53-1.61,1.25-2.14,2.14-.53.89-.8,1.89-.8,2.98v11.82h-2.8v-20h2.8v2.76c.71-1.01,1.63-1.82,2.76-2.42s2.37-.9,3.7-.9c1.51,0,2.88.37,4.12,1.1s2.23,1.72,2.96,2.96c.73,1.24,1.1,2.61,1.1,4.12ZM1010.98,1343.65c-1.84,0-3.52-.47-5.04-1.42-1.51-.95-2.71-2.21-3.62-3.8-.89-1.6-1.34-3.37-1.34-5.3,0-1.47.26-2.83.78-4.1.52-1.28,1.23-2.4,2.14-3.36.92-.97,1.99-1.73,3.2-2.28,1.21-.55,2.51-.82,3.88-.82,1.84,0,3.51.47,5.02,1.42,1.52.95,2.73,2.22,3.62,3.82.91,1.6,1.36,3.37,1.36,5.32,0,1.45-.26,2.81-.78,4.08-.52,1.27-1.24,2.39-2.16,3.36-.91.96-1.97,1.71-3.18,2.26-1.2.55-2.49.82-3.88.82ZM1010.98,1340.84c1.36,0,2.58-.35,3.66-1.06,1.09-.72,1.95-1.67,2.58-2.84.64-1.17.96-2.45.96-3.82s-.32-2.69-.96-3.86c-.64-1.19-1.51-2.13-2.6-2.84-1.08-.71-2.29-1.06-3.64-1.06s-2.59.36-3.68,1.08c-1.08.71-1.94,1.65-2.58,2.82-.63,1.17-.94,2.46-.94,3.86s.33,2.75.98,3.92c.65,1.16,1.53,2.09,2.62,2.78,1.09.68,2.29,1.02,3.6,1.02ZM1033.41,1343.12h-2.88l-6.7-20h2.74l5.44,16.12,5.4-16.12h2.96l5.4,16.12,5.4-16.12h2.76l-6.7,20h-2.9l-5.48-16.28-5.44,16.28Z" fill="rgba(255, 255, 255, .8)" stroke="#000" stroke-miterlimit="10" stroke-width=".25"/>
      <path id="Notification_Title_2" data-name="Notification Title_2" d="M205.28,1310.4h4.54l9.08,15.28h.38l9.08-15.28h4.54l-11.83,19.24v13.49h-3.96v-13.49l-11.82-19.24ZM245.7,1343.64c-2.22,0-4.16-.53-5.83-1.58-1.66-1.06-2.96-2.53-3.9-4.43-.93-1.89-1.39-4.11-1.39-6.64s.46-4.79,1.39-6.7c.94-1.91,2.24-3.39,3.9-4.44,1.67-1.06,3.62-1.59,5.83-1.59s4.15.53,5.82,1.59c1.67,1.05,2.97,2.53,3.9,4.44.94,1.91,1.41,4.14,1.41,6.7s-.47,4.75-1.41,6.64c-.93,1.9-2.23,3.37-3.9,4.43-1.66,1.05-3.6,1.58-5.82,1.58ZM245.7,1340.24c1.68,0,3.07-.43,4.15-1.29,1.09-.86,1.89-2,2.41-3.4.52-1.41.78-2.93.78-4.57s-.26-3.17-.78-4.59c-.52-1.42-1.33-2.56-2.41-3.44-1.09-.87-2.47-1.31-4.15-1.31s-3.07.44-4.15,1.31c-1.09.88-1.89,2.02-2.41,3.44-.52,1.42-.78,2.94-.78,4.59s.26,3.16.78,4.57c.52,1.4,1.33,2.54,2.41,3.4,1.09.86,2.47,1.29,4.15,1.29ZM279.75,1333.08v-14.51h3.77v24.55h-3.77v-4.15h-.26c-.57,1.24-1.47,2.3-2.68,3.18-1.21.86-2.75,1.29-4.6,1.29-1.54,0-2.9-.34-4.09-1.01-1.19-.68-2.13-1.7-2.81-3.07s-1.02-3.1-1.02-5.19v-15.6h3.77v15.35c0,1.79.5,3.21,1.5,4.28,1.01,1.06,2.3,1.6,3.87,1.6.94,0,1.89-.24,2.86-.72.98-.48,1.8-1.22,2.46-2.21.67-.99,1.01-2.25,1.01-3.79ZM292.13,1343.12v-24.55h3.64v3.71h.26c.45-1.21,1.26-2.2,2.43-2.95,1.17-.76,2.49-1.14,3.96-1.14.28,0,.62.01,1.04.02.42.01.73.02.94.04v3.84c-.13-.03-.42-.08-.88-.14-.45-.08-.92-.12-1.42-.12-1.19,0-2.26.25-3.2.76-.93.49-1.66,1.17-2.2,2.04-.53.86-.8,1.85-.8,2.96v15.53h-3.77ZM335.54,1343.12h-10.1v-32.73h10.55c3.17,0,5.89.66,8.15,1.97,2.26,1.3,3.99,3.17,5.19,5.61,1.2,2.43,1.81,5.33,1.81,8.72s-.61,6.35-1.82,8.81c-1.21,2.45-2.98,4.33-5.3,5.65-2.32,1.31-5.15,1.97-8.47,1.97ZM329.4,1339.6h5.88c2.71,0,4.95-.52,6.73-1.56,1.78-1.05,3.11-2.53,3.98-4.46.87-1.93,1.31-4.22,1.31-6.89s-.43-4.91-1.29-6.82c-.86-1.92-2.15-3.39-3.87-4.41-1.72-1.03-3.85-1.55-6.41-1.55h-6.33v25.69ZM366.2,1343.7c-1.56,0-2.97-.3-4.24-.88-1.27-.6-2.27-1.46-3.02-2.58-.75-1.13-1.12-2.49-1.12-4.09,0-1.4.28-2.54.83-3.42.55-.88,1.29-1.57,2.22-2.07.93-.51,1.95-.88,3.07-1.12,1.13-.26,2.26-.46,3.4-.61,1.49-.19,2.7-.34,3.63-.43.94-.11,1.62-.28,2.05-.53.44-.24.65-.67.65-1.28v-.13c0-1.57-.43-2.8-1.29-3.67-.85-.87-2.15-1.31-3.88-1.31s-3.21.39-4.24,1.18c-1.02.79-1.74,1.63-2.16,2.53l-3.58-1.28c.64-1.49,1.49-2.65,2.56-3.49,1.08-.84,2.25-1.42,3.52-1.75,1.28-.34,2.54-.52,3.77-.52.79,0,1.69.1,2.72.29,1.03.18,2.03.56,2.99,1.14.97.57,1.77,1.44,2.41,2.6.64,1.16.96,2.72.96,4.67v16.17h-3.77v-3.32h-.19c-.26.53-.68,1.1-1.28,1.71-.6.6-1.39,1.12-2.38,1.55-.99.42-2.2.64-3.63.64ZM366.77,1340.31c1.49,0,2.75-.3,3.77-.88,1.03-.59,1.81-1.34,2.33-2.27.53-.93.8-1.9.8-2.92v-3.46c-.16.2-.51.37-1.05.53-.53.15-1.15.28-1.85.4-.69.11-1.37.2-2.03.29-.65.07-1.18.14-1.58.19-.98.13-1.9.34-2.75.62-.84.28-1.52.7-2.05,1.27-.51.55-.77,1.31-.77,2.26,0,1.31.48,2.31,1.45,2.98.98.66,2.22.99,3.72.99ZM386.03,1343.12v-24.55h3.77v24.55h-3.77ZM387.95,1314.48c-.73,0-1.37-.25-1.9-.75-.52-.5-.78-1.1-.78-1.8s.26-1.31.78-1.81c.53-.5,1.17-.75,1.9-.75s1.36.25,1.89.75c.53.5.8,1.1.8,1.81s-.27,1.3-.8,1.8c-.52.5-1.15.75-1.89.75ZM402.18,1310.4v32.73h-3.77v-32.73h3.77ZM413.22,1352.32c-.64,0-1.21-.05-1.71-.16-.5-.09-.85-.19-1.04-.28l.96-3.33c.92.24,1.73.32,2.43.26.7-.07,1.33-.38,1.87-.94.55-.56,1.06-1.46,1.52-2.7l.7-1.92-9.08-24.68h4.09l6.78,19.56h.26l6.78-19.56h4.09l-10.42,28.13c-.47,1.27-1.05,2.32-1.74,3.15-.69.84-1.5,1.46-2.41,1.87-.91.4-1.93.6-3.07.6ZM470.3,1318.57c-.19-1.61-.97-2.87-2.33-3.77-1.36-.89-3.04-1.34-5.02-1.34-1.45,0-2.72.24-3.8.7-1.08.47-1.92,1.12-2.52,1.94-.6.82-.9,1.75-.9,2.79,0,.88.21,1.63.62,2.26.43.62.97,1.13,1.63,1.55.66.4,1.35.74,2.08,1,.72.26,1.39.47,2,.63l3.32.89c.85.23,1.8.53,2.85.93,1.05.39,2.06.93,3.02,1.61.97.67,1.77,1.54,2.4,2.59.63,1.06.94,2.35.94,3.89,0,1.76-.46,3.36-1.39,4.79-.92,1.43-2.26,2.56-4.03,3.4-1.76.84-3.89,1.27-6.41,1.27-2.34,0-4.37-.38-6.09-1.14-1.71-.76-3.05-1.81-4.03-3.16-.97-1.36-1.52-2.93-1.65-4.72h4.09c.11,1.24.52,2.26,1.25,3.07.73.8,1.66,1.4,2.78,1.79,1.13.38,2.34.58,3.64.58,1.51,0,2.87-.25,4.08-.74,1.2-.5,2.16-1.19,2.86-2.08.7-.89,1.05-1.94,1.05-3.13,0-1.09-.3-1.97-.91-2.65-.61-.68-1.41-1.24-2.4-1.66-.99-.43-2.06-.8-3.21-1.12l-4.03-1.15c-2.56-.74-4.58-1.79-6.07-3.15-1.49-1.36-2.24-3.15-2.24-5.35,0-1.84.49-3.43,1.49-4.8,1-1.37,2.34-2.44,4.03-3.19,1.69-.77,3.58-1.15,5.67-1.15s3.98.37,5.62,1.13c1.64.75,2.94,1.77,3.9,3.07.97,1.3,1.48,2.77,1.53,4.42h-3.83ZM482.29,1352.32v-33.75h3.64v3.9h.45c.28-.42.66-.97,1.15-1.63.5-.67,1.21-1.26,2.14-1.79.94-.53,2.21-.8,3.8-.8,2.07,0,3.89.52,5.47,1.56,1.58,1.03,2.81,2.49,3.69,4.39.88,1.9,1.33,4.13,1.33,6.71s-.44,4.85-1.33,6.76c-.88,1.9-2.11,3.37-3.68,4.41-1.57,1.03-3.37,1.55-5.42,1.55-1.58,0-2.84-.26-3.79-.78-.95-.53-1.68-1.14-2.19-1.81-.51-.68-.91-1.24-1.18-1.69h-.32v12.97h-3.77ZM486,1330.85c0,1.85.27,3.49.82,4.9.54,1.41,1.34,2.51,2.38,3.31,1.04.79,2.32,1.18,3.84,1.18s2.89-.41,3.95-1.24c1.07-.84,1.86-1.97,2.4-3.39.54-1.43.82-3.02.82-4.76s-.27-3.28-.8-4.67c-.52-1.39-1.32-2.5-2.38-3.31-1.06-.82-2.38-1.23-3.98-1.23s-2.82.39-3.87,1.17c-1.04.77-1.83,1.84-2.36,3.23-.53,1.37-.8,2.97-.8,4.81ZM521.7,1343.64c-2.36,0-4.4-.52-6.12-1.56-1.71-1.06-3.02-2.53-3.95-4.42-.92-1.89-1.37-4.1-1.37-6.61s.46-4.73,1.37-6.65c.93-1.93,2.22-3.43,3.87-4.51,1.66-1.08,3.6-1.63,5.82-1.63,1.28,0,2.54.22,3.79.64,1.25.43,2.38,1.12,3.4,2.08,1.02.95,1.84,2.21,2.45,3.77.61,1.57.91,3.5.91,5.79v1.6h-18.92v-3.26h15.09c0-1.39-.28-2.63-.83-3.71-.54-1.09-1.32-1.95-2.33-2.57-1-.63-2.18-.95-3.55-.95-1.5,0-2.8.38-3.9,1.12-1.09.74-1.92,1.7-2.51,2.88-.59,1.18-.88,2.45-.88,3.8v2.17c0,1.86.32,3.43.96,4.72.65,1.28,1.55,2.25,2.7,2.92,1.15.66,2.49.99,4.01.99.99,0,1.89-.13,2.68-.41.81-.29,1.51-.72,2.09-1.28.59-.58,1.04-1.29,1.36-2.14l3.64,1.02c-.38,1.24-1.03,2.32-1.93,3.26-.91.93-2.02,1.65-3.36,2.17-1.33.52-2.83.77-4.49.77ZM543.07,1328.35v14.77h-3.77v-24.55h3.64v3.84h.32c.58-1.25,1.45-2.25,2.62-3,1.17-.77,2.68-1.16,4.54-1.16,1.66,0,3.12.35,4.36,1.03,1.25.67,2.22,1.69,2.91,3.07.69,1.36,1.04,3.09,1.04,5.17v15.6h-3.77v-15.34c0-1.93-.5-3.43-1.5-4.51-1-1.08-2.38-1.63-4.12-1.63-1.2,0-2.28.26-3.23.79-.94.52-1.68,1.28-2.22,2.28-.54,1-.82,2.22-.82,3.64ZM576.59,1343.64c-2.05,0-3.85-.52-5.42-1.55-1.57-1.04-2.79-2.51-3.68-4.41-.88-1.91-1.33-4.16-1.33-6.76s.44-4.81,1.33-6.71c.88-1.9,2.11-3.36,3.69-4.39,1.58-1.04,3.4-1.56,5.46-1.56,1.6,0,2.86.27,3.79.8.94.53,1.65,1.12,2.14,1.79.5.66.89,1.21,1.17,1.63h.32v-12.08h3.77v32.73h-3.64v-3.77h-.45c-.28.45-.67,1.01-1.18,1.69-.51.67-1.24,1.28-2.19,1.81-.95.52-2.21.78-3.79.78ZM577.1,1340.24c1.51,0,2.79-.39,3.84-1.18,1.04-.8,1.84-1.9,2.38-3.31.54-1.41.82-3.05.82-4.9s-.27-3.44-.8-4.81c-.53-1.39-1.32-2.46-2.36-3.23-1.04-.78-2.33-1.17-3.87-1.17s-2.93.41-3.99,1.23c-1.05.81-1.85,1.92-2.38,3.31-.52,1.39-.78,2.94-.78,4.67s.27,3.33.8,4.76c.54,1.42,1.34,2.55,2.4,3.39,1.06.83,2.39,1.24,3.96,1.24ZM596.97,1343.12v-24.55h3.77v24.55h-3.77ZM598.89,1314.48c-.74,0-1.37-.25-1.9-.75-.52-.5-.78-1.1-.78-1.8s.26-1.31.78-1.81c.53-.5,1.17-.75,1.9-.75s1.36.25,1.88.75c.53.5.8,1.1.8,1.81s-.27,1.3-.8,1.8c-.52.5-1.15.75-1.88.75ZM613.12,1328.35v14.77h-3.77v-24.55h3.64v3.84h.32c.58-1.25,1.45-2.25,2.62-3,1.17-.77,2.68-1.16,4.54-1.16,1.66,0,3.12.35,4.36,1.03,1.25.67,2.22,1.69,2.91,3.07.69,1.36,1.04,3.09,1.04,5.17v15.6h-3.77v-15.34c0-1.93-.5-3.43-1.5-4.51-1-1.08-2.38-1.63-4.12-1.63-1.2,0-2.28.26-3.23.79-.94.52-1.68,1.28-2.22,2.28-.54,1-.82,2.22-.82,3.64ZM647.28,1352.84c-1.82,0-3.39-.24-4.7-.71-1.31-.46-2.4-1.06-3.28-1.82-.86-.74-1.55-1.54-2.06-2.4l3-2.11c.34.45.77.96,1.29,1.54.52.58,1.24,1.09,2.14,1.52.92.43,2.11.65,3.6.65,1.98,0,3.62-.48,4.91-1.44,1.29-.95,1.93-2.46,1.93-4.5v-4.99h-.32c-.28.45-.67,1-1.18,1.66-.5.65-1.22,1.23-2.17,1.75-.94.5-2.21.75-3.8.75-1.98,0-3.76-.47-5.34-1.41-1.57-.94-2.81-2.3-3.72-4.09-.91-1.79-1.36-3.96-1.36-6.52s.44-4.7,1.33-6.57c.88-1.87,2.11-3.32,3.69-4.34,1.58-1.04,3.4-1.56,5.47-1.56,1.6,0,2.87.27,3.8.8.95.53,1.67,1.12,2.17,1.79.51.66.91,1.21,1.18,1.63h.38v-3.9h3.64v25.25c0,2.11-.48,3.83-1.44,5.15-.95,1.33-2.23,2.31-3.84,2.92-1.6.63-3.38.95-5.34.95ZM647.16,1339.35c1.51,0,2.79-.35,3.84-1.04,1.04-.69,1.84-1.69,2.38-2.99.54-1.3.82-2.85.82-4.66s-.27-3.33-.8-4.69c-.53-1.35-1.32-2.41-2.36-3.18-1.04-.76-2.33-1.15-3.87-1.15s-2.93.41-3.99,1.22c-1.05.81-1.85,1.89-2.38,3.26-.52,1.36-.78,2.87-.78,4.54s.27,3.21.8,4.52c.54,1.3,1.34,2.32,2.4,3.07,1.07.73,2.39,1.1,3.96,1.1Z" fill="#fff" stroke="#000" stroke-miterlimit="10" stroke-width=".25"/>
      <g clip-path="url(#clippath-1)">
        <g id="App_Icon_3" data-name="App Icon_3">
          <rect id="App_Icon_4" data-name="App Icon_4" x="60.12" y="1324.12" width="114" height="114" rx="26" ry="26" fill="none" stroke="#000" stroke-miterlimit="10"/>
        </g>
      </g>
    </g>
    <g id="Light_Notification_Box" data-name="Light Notification Box">
      <rect x="30.12" y="942.12" width="1065" height="226" rx="54" ry="54" fill="none" stroke="#000" stroke-miterlimit="10" stroke-width=".25"/>
      <rect id="Background" x="30.12" y="942.12" width="1065" height="226" rx="54" ry="54" fill="rgba(255, 255, 255, .45)" stroke="#000" stroke-miterlimit="10" stroke-width=".25"/>
      <path id="Notification_Text" data-name="Notification Text" d="M230.65,1039.62v3.15h-10.8v28.35h-3.15v-28.35h-10.78v-3.15h24.73ZM243.35,1071.71c-2.07,0-3.96-.54-5.67-1.6-1.7-1.07-3.05-2.49-4.07-4.28-1.01-1.8-1.51-3.79-1.51-5.96,0-1.65.29-3.19.88-4.61.59-1.44,1.39-2.7,2.41-3.78,1.03-1.1,2.23-1.95,3.6-2.57,1.37-.61,2.82-.92,4.37-.92,2.07,0,3.95.53,5.65,1.6,1.71,1.06,3.07,2.49,4.07,4.29,1.02,1.8,1.53,3.8,1.53,5.99,0,1.63-.29,3.16-.88,4.59-.59,1.42-1.4,2.68-2.43,3.78-1.02,1.08-2.21,1.93-3.58,2.54-1.35.62-2.8.93-4.36.93ZM243.35,1068.56c1.53,0,2.9-.39,4.12-1.19,1.23-.81,2.2-1.87,2.9-3.19.72-1.32,1.08-2.76,1.08-4.3s-.36-3.02-1.08-4.34c-.72-1.34-1.69-2.4-2.92-3.2-1.22-.79-2.58-1.19-4.1-1.19s-2.91.4-4.14,1.21c-1.22.8-2.18,1.86-2.9,3.18-.71,1.32-1.06,2.76-1.06,4.34s.37,3.09,1.1,4.41c.74,1.3,1.72,2.35,2.95,3.13,1.23.76,2.58,1.14,4.05,1.14ZM271.32,1051.78h-5.38l-.02,19.35h-3.15l.02-19.35h-4.07v-3.15h4.07l-.02-7.07h3.15l.02,7.07h5.38v3.15ZM295.01,1048.62h3.15v22.5h-3.15l-.11-4.19c-.73,1.43-1.76,2.58-3.08,3.47-1.32.87-2.89,1.31-4.72,1.31-1.65,0-3.2-.31-4.64-.93-1.44-.63-2.71-1.49-3.8-2.59-1.1-1.09-1.95-2.36-2.57-3.8-.61-1.44-.92-2.98-.92-4.63s.3-3.15.9-4.57c.62-1.43,1.46-2.68,2.52-3.76,1.08-1.08,2.32-1.92,3.73-2.52,1.43-.61,2.95-.92,4.57-.92,1.88,0,3.51.45,4.9,1.35,1.39.88,2.51,2.05,3.33,3.49l-.11-4.21ZM287.02,1068.65c1.61,0,2.99-.39,4.14-1.17,1.15-.79,2.04-1.86,2.65-3.19.63-1.34.95-2.81.95-4.41s-.32-3.14-.95-4.46c-.63-1.33-1.52-2.39-2.68-3.17s-2.53-1.17-4.12-1.17-3.04.4-4.36,1.19c-1.3.78-2.35,1.84-3.13,3.18-.77,1.33-1.15,2.81-1.15,4.43s.4,3.12,1.19,4.45c.8,1.32,1.85,2.37,3.15,3.15,1.32.78,2.75,1.17,4.3,1.17ZM304.77,1071.12v-33.75h3.15v33.75h-3.15ZM338.75,1071.71c-1.68,0-3.31-.27-4.88-.79-1.56-.53-2.93-1.28-4.1-2.25-1.17-.98-1.99-2.14-2.48-3.49l2.95-1.1c.33.93.93,1.73,1.8,2.4.88.66,1.91,1.17,3.08,1.53,1.18.36,2.39.54,3.62.54,1.44,0,2.78-.24,4.03-.72,1.24-.48,2.25-1.14,3.01-2,.77-.87,1.15-1.89,1.15-3.06s-.4-2.16-1.19-2.92c-.8-.77-1.82-1.37-3.08-1.8-1.24-.45-2.55-.8-3.92-1.04-2.14-.37-4.07-.88-5.78-1.53-1.69-.64-3.04-1.55-4.03-2.72-.99-1.19-1.48-2.75-1.48-4.68,0-1.82.52-3.39,1.57-4.73,1.05-1.33,2.43-2.37,4.14-3.1,1.72-.74,3.58-1.1,5.58-1.1,1.64,0,3.23.25,4.79.76s2.93,1.25,4.12,2.23c1.2.97,2.06,2.17,2.59,3.58l-2.99,1.08c-.33-.95-.94-1.75-1.82-2.41-.87-.68-1.89-1.19-3.06-1.53-1.17-.36-2.38-.54-3.62-.54-1.42-.02-2.76.22-4.01.72-1.23.48-2.23,1.15-2.99,2.02-.76.86-1.15,1.86-1.15,3.02,0,1.35.35,2.39,1.06,3.13.72.72,1.7,1.26,2.93,1.62,1.23.36,2.62.68,4.16.96,2.01.35,3.88.89,5.6,1.62,1.73.72,3.11,1.69,4.16,2.91,1.05,1.2,1.57,2.68,1.57,4.45s-.52,3.38-1.57,4.73c-1.05,1.33-2.44,2.37-4.16,3.1-1.71.74-3.58,1.11-5.6,1.11ZM359.95,1082.38h-3.15v-33.75h3.15v4.21c.78-1.43,1.85-2.58,3.2-3.47,1.35-.88,2.95-1.33,4.82-1.33,1.63,0,3.16.31,4.59.93,1.44.61,2.7,1.47,3.78,2.56,1.08,1.08,1.93,2.33,2.54,3.76.61,1.42.92,2.95.92,4.59s-.31,3.17-.92,4.61c-.61,1.44-1.46,2.71-2.54,3.8-1.08,1.08-2.34,1.93-3.78,2.55-1.43.61-2.96.92-4.59.92-1.86,0-3.46-.44-4.82-1.33-1.35-.88-2.42-2.04-3.2-3.46v15.41ZM367.94,1051.09c-1.58,0-2.95.4-4.12,1.2-1.15.78-2.05,1.83-2.68,3.15-.63,1.32-.94,2.79-.94,4.43s.31,3.07.92,4.41c.63,1.33,1.52,2.4,2.68,3.19,1.17.8,2.55,1.2,4.14,1.2s2.99-.39,4.3-1.17c1.32-.78,2.38-1.83,3.17-3.15.79-1.34,1.19-2.83,1.19-4.48s-.39-3.07-1.17-4.39c-.78-1.33-1.82-2.4-3.13-3.19-1.3-.8-2.76-1.2-4.36-1.2ZM395.08,1071.71c-2.07,0-3.96-.54-5.67-1.6-1.7-1.07-3.05-2.49-4.07-4.28-1.01-1.8-1.51-3.79-1.51-5.96,0-1.65.29-3.19.88-4.61.58-1.44,1.39-2.7,2.41-3.78,1.04-1.1,2.24-1.95,3.6-2.57,1.36-.61,2.82-.92,4.36-.92,1.67,0,3.2.33,4.59.99,1.41.66,2.62,1.58,3.62,2.77,1.02,1.18,1.79,2.57,2.3,4.16.52,1.59.74,3.31.65,5.15h-19.08c.18,1.43.63,2.7,1.35,3.83.73,1.12,1.66,2.01,2.79,2.67,1.14.65,2.4.98,3.78.99,1.5,0,2.85-.39,4.05-1.17,1.21-.78,2.19-1.85,2.92-3.21l3.2.74c-.9,1.99-2.26,3.63-4.07,4.9-1.82,1.26-3.85,1.9-6.1,1.9ZM387.08,1058.53h16c-.1-1.4-.53-2.67-1.28-3.83-.74-1.17-1.69-2.1-2.86-2.79-1.17-.7-2.45-1.05-3.85-1.05s-2.67.34-3.82,1.03c-1.15.68-2.1,1.6-2.84,2.77-.73,1.15-1.18,2.44-1.35,3.87ZM431.52,1057.19v13.93h-3.15v-13.3c0-1.23-.3-2.35-.9-3.35-.6-1.01-1.4-1.81-2.41-2.41-1.01-.6-2.12-.9-3.35-.9s-2.33.3-3.35.9c-1.01.6-1.81,1.4-2.41,2.41-.6,1-.9,2.12-.9,3.35v13.3h-3.15v-22.5h3.15v3.1c.79-1.14,1.83-2.04,3.11-2.72,1.27-.67,2.66-1.01,4.16-1.01,1.7,0,3.24.41,4.64,1.24,1.39.82,2.51,1.93,3.33,3.33.83,1.39,1.24,2.94,1.24,4.63ZM449.33,1051.78h-5.38l-.02,19.35h-3.15l.02-19.35h-4.07v-3.15h4.07l-.02-7.07h3.15l.02,7.07h5.38v3.15ZM456.02,1052.22c-.49,0-.92-.17-1.26-.52-.35-.36-.52-.79-.52-1.3,0-.48.17-.9.52-1.24.35-.36.77-.54,1.26-.54s.94.18,1.28.54c.36.34.54.76.54,1.24,0,.51-.18.94-.54,1.3-.35.35-.77.52-1.28.52ZM456.02,1071.71c-.49,0-.92-.18-1.26-.54-.35-.35-.52-.78-.52-1.29,0-.48.17-.89.52-1.24.35-.36.77-.54,1.26-.54s.94.18,1.28.54c.36.35.54.76.54,1.24,0,.51-.18.94-.54,1.29-.35.36-.77.54-1.28.54ZM476.74,1071.12v-2.79c1.23-1.14,2.58-2.39,4.05-3.74,1.47-1.36,2.93-2.76,4.37-4.2,1.45-1.46,2.78-2.89,3.98-4.3,1.2-1.43,2.16-2.77,2.88-4.03.73-1.27,1.1-2.4,1.1-3.37,0-1.19-.29-2.27-.88-3.24-.57-.99-1.34-1.78-2.32-2.37-.96-.6-2.03-.9-3.22-.9s-2.27.3-3.26.9c-.97.59-1.75,1.38-2.34,2.37-.58.97-.88,2.05-.88,3.24h-3.15c0-1.8.43-3.43,1.3-4.89.89-1.45,2.05-2.61,3.51-3.46,1.45-.87,3.06-1.31,4.81-1.31s3.35.44,4.79,1.31c1.45.87,2.61,2.03,3.46,3.49.87,1.45,1.3,3.07,1.3,4.86,0,1.06-.29,2.23-.86,3.51-.55,1.26-1.31,2.57-2.27,3.93-.96,1.35-2.04,2.72-3.24,4.1-1.2,1.38-2.45,2.73-3.76,4.05-1.3,1.3-2.57,2.53-3.8,3.69h14.4v3.15h-20ZM503.06,1073.65l1.4-7.61h3.15l-2.45,7.61h-2.09ZM513.91,1071.12v-2.79c1.23-1.14,2.58-2.39,4.05-3.74,1.47-1.36,2.92-2.76,4.36-4.2,1.46-1.46,2.78-2.89,3.98-4.3,1.2-1.43,2.16-2.77,2.88-4.03.73-1.27,1.1-2.4,1.1-3.37,0-1.19-.29-2.27-.88-3.24-.57-.99-1.34-1.78-2.32-2.37-.96-.6-2.03-.9-3.22-.9s-2.27.3-3.26.9c-.98.59-1.76,1.38-2.34,2.37-.59.97-.88,2.05-.88,3.24h-3.15c0-1.8.43-3.43,1.3-4.89.89-1.45,2.05-2.61,3.51-3.46,1.45-.87,3.06-1.31,4.82-1.31s3.35.44,4.79,1.31c1.45.87,2.61,2.03,3.46,3.49.87,1.45,1.3,3.07,1.3,4.86,0,1.06-.28,2.23-.85,3.51-.55,1.26-1.31,2.57-2.27,3.93-.96,1.35-2.04,2.72-3.24,4.1-1.2,1.38-2.45,2.73-3.76,4.05-1.3,1.3-2.57,2.53-3.8,3.69h14.4v3.15h-20ZM543.61,1071.12v-28.35h-3.38l.9-3.15h5.62v31.5h-3.15ZM589.21,1071.46c-2.04.37-4.01.34-5.92-.09-1.91-.42-3.66-1.18-5.27-2.28-1.59-1.09-2.96-2.45-4.1-4.07-1.12-1.63-1.93-3.46-2.43-5.46h-4.95v-2.41h4.52v-3.54h-4.52v-2.4h4.95c.51-2.04,1.34-3.88,2.48-5.51,1.15-1.64,2.53-3,4.14-4.08,1.61-1.09,3.35-1.85,5.24-2.27,1.89-.44,3.84-.47,5.85-.09v3.22c-1.64-.36-3.21-.4-4.73-.12-1.5.29-2.89.84-4.16,1.65-1.28.81-2.39,1.83-3.33,3.06-.93,1.23-1.64,2.61-2.11,4.14h7.45v2.4h-8.05v3.54h8.05v2.41h-7.42c.48,1.55,1.19,2.95,2.14,4.18.94,1.23,2.05,2.24,3.33,3.04,1.29.79,2.68,1.32,4.18,1.59,1.52.26,3.07.21,4.66-.15v3.24ZM617.53,1071.12h-3.24l-7.54-22.5h3.08l6.12,18.13,6.08-18.13h3.33l6.08,18.13,6.07-18.13h3.11l-7.54,22.5h-3.26l-6.16-18.32-6.12,18.32ZM666.08,1057.19v13.93h-3.15v-13.3c0-1.23-.3-2.35-.9-3.35-.6-1.01-1.4-1.81-2.41-2.41-1.01-.6-2.12-.9-3.35-.9s-2.33.3-3.35.9c-1.01.6-1.81,1.4-2.41,2.41-.6,1-.9,2.12-.9,3.35v13.3h-3.15v-33.75h3.15v14.35c.79-1.14,1.83-2.04,3.1-2.72,1.28-.67,2.66-1.01,4.16-1.01,1.7,0,3.24.41,4.64,1.24,1.4.82,2.51,1.93,3.33,3.33.83,1.39,1.24,2.94,1.24,4.63ZM672.39,1048.62h3.15v22.5h-3.15v-22.5ZM673.98,1044.69c-.51,0-.95-.16-1.3-.49-.35-.35-.52-.78-.52-1.29s.17-.93.52-1.26c.36-.34.79-.51,1.3-.51s.91.17,1.26.51c.36.33.54.75.54,1.26s-.17.94-.52,1.29c-.35.33-.77.49-1.28.49ZM698.6,1065.47l2.81,1.53c-1.02,1.43-2.32,2.57-3.89,3.42-1.56.86-3.25,1.29-5.08,1.29-2.07,0-3.96-.54-5.67-1.6-1.7-1.07-3.05-2.49-4.07-4.28-1-1.8-1.51-3.79-1.51-5.96,0-1.65.29-3.19.88-4.61.58-1.44,1.39-2.7,2.41-3.78,1.04-1.1,2.23-1.95,3.6-2.57,1.36-.61,2.82-.92,4.36-.92,1.83,0,3.52.43,5.08,1.28,1.58.86,2.87,2,3.89,3.44l-2.81,1.51c-.78-.99-1.72-1.75-2.81-2.27-1.1-.54-2.21-.81-3.35-.81-1.52,0-2.89.4-4.12,1.21-1.23.8-2.2,1.86-2.92,3.18-.7,1.32-1.06,2.76-1.06,4.34s.36,3.02,1.08,4.34c.73,1.32,1.72,2.38,2.95,3.17,1.23.78,2.59,1.17,4.07,1.17,1.23,0,2.39-.28,3.46-.85,1.08-.57,1.98-1.31,2.7-2.23ZM726.59,1057.19v13.93h-3.15v-13.3c0-1.23-.3-2.35-.9-3.35-.6-1.01-1.4-1.81-2.41-2.41-1.01-.6-2.12-.9-3.35-.9s-2.33.3-3.35.9c-1.01.6-1.81,1.4-2.41,2.41-.6,1-.9,2.12-.9,3.35v13.3h-3.15v-33.75h3.15v14.35c.8-1.14,1.83-2.04,3.11-2.72,1.27-.67,2.66-1.01,4.16-1.01,1.7,0,3.24.41,4.64,1.24,1.4.82,2.51,1.93,3.33,3.33.83,1.39,1.24,2.94,1.24,4.63ZM745.51,1048.62h3.15v22.5h-3.15v-22.5ZM747.1,1044.69c-.51,0-.95-.16-1.3-.49-.34-.35-.52-.78-.52-1.29s.17-.93.52-1.26c.36-.34.79-.51,1.3-.51s.92.17,1.26.51c.36.33.54.75.54,1.26s-.17.94-.52,1.29c-.35.33-.77.49-1.28.49ZM762.65,1071.56c-1.23-.03-2.43-.26-3.6-.68-1.17-.42-2.19-.99-3.06-1.71-.87-.72-1.49-1.54-1.87-2.45l2.72-1.17c.24.58.68,1.12,1.33,1.62.66.48,1.41.87,2.25,1.17.84.28,1.67.43,2.5.43.91,0,1.77-.15,2.57-.45.79-.3,1.44-.73,1.93-1.29.51-.57.76-1.23.76-2,0-.82-.27-1.47-.81-1.93-.54-.48-1.22-.86-2.05-1.13-.83-.28-1.67-.55-2.54-.81-1.59-.43-2.99-.91-4.21-1.44-1.22-.52-2.17-1.19-2.86-2-.67-.83-1.01-1.88-1.01-3.17,0-1.37.38-2.55,1.15-3.54.78-1,1.79-1.77,3.04-2.31,1.26-.56,2.6-.84,4.03-.84,1.83,0,3.49.4,4.99,1.2,1.52.79,2.61,1.85,3.28,3.17l-2.54,1.51c-.27-.62-.7-1.15-1.28-1.6-.58-.45-1.25-.8-2-1.06-.73-.25-1.48-.39-2.25-.4-.96-.02-1.85.12-2.68.42-.83.29-1.49.72-2,1.29-.49.57-.74,1.26-.74,2.09s.25,1.45.74,1.89c.49.42,1.16.76,2,1.03.86.26,1.82.56,2.88.9,1.36.44,2.65.93,3.85,1.49,1.2.55,2.17,1.24,2.9,2.07.73.82,1.1,1.87,1.08,3.13,0,1.35-.41,2.52-1.22,3.53-.81,1-1.86,1.78-3.15,2.32-1.29.52-2.67.76-4.14.72ZM791.92,1071.12v-28.35h-3.38l.9-3.15h5.62v31.5h-3.15ZM812.29,1071.71c-1.85,0-3.53-.43-5.06-1.27-1.52-.84-2.72-1.96-3.62-3.37-.9-1.41-1.35-2.98-1.35-4.7s.46-3.21,1.39-4.59c.93-1.4,2.14-2.48,3.62-3.24-1.23-.71-2.24-1.67-3.04-2.88-.79-1.23-1.19-2.58-1.19-4.05,0-1.58.41-3.01,1.24-4.3.84-1.31,1.96-2.34,3.35-3.11,1.41-.78,2.96-1.17,4.66-1.17s3.24.39,4.64,1.17c1.41.77,2.53,1.8,3.35,3.11.84,1.29,1.26,2.72,1.26,4.3,0,1.47-.4,2.82-1.19,4.05-.78,1.21-1.79,2.17-3.04,2.88,1.52.76,2.73,1.84,3.65,3.24.93,1.38,1.39,2.91,1.39,4.59s-.46,3.27-1.37,4.7c-.9,1.41-2.11,2.53-3.62,3.37-1.52.84-3.2,1.27-5.06,1.27ZM812.29,1068.56c1.24,0,2.37-.27,3.38-.83,1.01-.55,1.81-1.3,2.41-2.22.6-.95.9-1.99.9-3.13s-.3-2.18-.9-3.11c-.6-.93-1.4-1.67-2.41-2.23-1.01-.55-2.13-.83-3.38-.83s-2.33.28-3.35.83c-1.01.56-1.82,1.3-2.43,2.23-.6.93-.9,1.97-.9,3.11s.3,2.18.9,3.13c.61.92,1.42,1.67,2.43,2.22,1.02.56,2.14.83,3.35.83ZM812.29,1053.06c1.09,0,2.09-.24,2.97-.72.89-.49,1.59-1.15,2.12-1.98.54-.82.81-1.74.81-2.74s-.27-1.92-.81-2.73c-.53-.82-1.23-1.47-2.12-1.95-.88-.5-1.88-.75-2.97-.75s-2.07.25-2.97.75c-.88.48-1.6,1.13-2.14,1.95-.53.81-.79,1.72-.79,2.73s.26,1.92.79,2.74c.54.83,1.25,1.49,2.14,1.98.9.48,1.89.72,2.97.72ZM827.74,1073.65l1.39-7.61h3.15l-2.45,7.61h-2.09ZM848.63,1071.71c-1.84,0-3.53-.43-5.06-1.27-1.51-.84-2.72-1.96-3.62-3.37-.9-1.41-1.35-2.98-1.35-4.7s.46-3.21,1.39-4.59c.93-1.4,2.14-2.48,3.62-3.24-1.23-.71-2.24-1.67-3.04-2.88-.79-1.23-1.19-2.58-1.19-4.05,0-1.58.41-3.01,1.24-4.3.84-1.31,1.96-2.34,3.35-3.11,1.41-.78,2.96-1.17,4.66-1.17s3.24.39,4.64,1.17c1.41.77,2.53,1.8,3.35,3.11.84,1.29,1.26,2.72,1.26,4.3,0,1.47-.4,2.82-1.19,4.05-.78,1.21-1.79,2.17-3.04,2.88,1.52.76,2.73,1.84,3.65,3.24.93,1.38,1.39,2.91,1.39,4.59s-.46,3.27-1.37,4.7c-.9,1.41-2.11,2.53-3.62,3.37-1.51.84-3.2,1.27-5.06,1.27ZM848.63,1068.56c1.24,0,2.37-.27,3.38-.83,1.01-.55,1.81-1.3,2.41-2.22.6-.95.9-1.99.9-3.13s-.3-2.18-.9-3.11c-.6-.93-1.4-1.67-2.41-2.23-1.01-.55-2.13-.83-3.38-.83s-2.33.28-3.35.83c-1.01.56-1.82,1.3-2.43,2.23-.6.93-.9,1.97-.9,3.11s.3,2.18.9,3.13c.61.92,1.42,1.67,2.43,2.22,1.02.56,2.14.83,3.35.83ZM848.63,1053.06c1.1,0,2.09-.24,2.97-.72.88-.49,1.59-1.15,2.11-1.98.54-.82.81-1.74.81-2.74s-.27-1.92-.81-2.73c-.53-.82-1.23-1.47-2.11-1.95-.89-.5-1.88-.75-2.97-.75s-2.07.25-2.97.75c-.89.48-1.6,1.13-2.14,1.95-.53.81-.79,1.72-.79,2.73s.26,1.92.79,2.74c.54.83,1.25,1.49,2.14,1.98.9.48,1.89.72,2.97.72ZM874.11,1071.71c-1.84,0-3.53-.43-5.06-1.27-1.52-.84-2.72-1.96-3.62-3.37-.9-1.41-1.35-2.98-1.35-4.7s.46-3.21,1.39-4.59c.93-1.4,2.14-2.48,3.62-3.24-1.23-.71-2.24-1.67-3.04-2.88-.79-1.23-1.19-2.58-1.19-4.05,0-1.58.41-3.01,1.24-4.3.84-1.31,1.96-2.34,3.35-3.11,1.41-.78,2.96-1.17,4.66-1.17s3.24.39,4.64,1.17c1.41.77,2.53,1.8,3.35,3.11.84,1.29,1.26,2.72,1.26,4.3,0,1.47-.4,2.82-1.19,4.05-.78,1.21-1.79,2.17-3.04,2.88,1.51.76,2.73,1.84,3.64,3.24.93,1.38,1.4,2.91,1.4,4.59s-.46,3.27-1.37,4.7c-.9,1.41-2.11,2.53-3.62,3.37-1.52.84-3.2,1.27-5.06,1.27ZM874.11,1068.56c1.24,0,2.37-.27,3.38-.83,1.01-.55,1.81-1.3,2.41-2.22.6-.95.9-1.99.9-3.13s-.3-2.18-.9-3.11c-.6-.93-1.4-1.67-2.41-2.23-1.01-.55-2.13-.83-3.38-.83s-2.33.28-3.35.83c-1.01.56-1.82,1.3-2.43,2.23-.6.93-.9,1.97-.9,3.11s.3,2.18.9,3.13c.62.92,1.43,1.67,2.43,2.22,1.02.56,2.14.83,3.35.83ZM874.11,1053.06c1.1,0,2.09-.24,2.97-.72.88-.49,1.59-1.15,2.11-1.98.54-.82.81-1.74.81-2.74s-.27-1.92-.81-2.73c-.53-.82-1.23-1.47-2.11-1.95-.89-.5-1.88-.75-2.97-.75s-2.07.25-2.97.75c-.89.48-1.6,1.13-2.14,1.95-.53.81-.79,1.72-.79,2.73s.26,1.92.79,2.74c.54.83,1.25,1.49,2.14,1.98.9.48,1.89.72,2.97.72ZM924.83,1071.46c-2.04.37-4.01.34-5.92-.09-1.9-.42-3.66-1.18-5.27-2.28-1.59-1.09-2.95-2.45-4.09-4.07-1.12-1.63-1.93-3.46-2.43-5.46h-4.95v-2.41h4.52v-3.54h-4.52v-2.4h4.95c.51-2.04,1.33-3.88,2.47-5.51,1.16-1.64,2.54-3,4.14-4.08,1.6-1.09,3.35-1.85,5.24-2.27,1.89-.44,3.84-.47,5.85-.09v3.22c-1.64-.36-3.21-.4-4.72-.12-1.5.29-2.89.84-4.16,1.65-1.28.81-2.39,1.83-3.33,3.06-.93,1.23-1.64,2.61-2.11,4.14h7.45v2.4h-8.05v3.54h8.05v2.41h-7.42c.48,1.55,1.19,2.95,2.14,4.18s2.05,2.24,3.33,3.04c1.29.79,2.68,1.32,4.18,1.59,1.52.26,3.07.21,4.66-.15v3.24ZM206.82,1125.12v-33.75h3.15v33.75h-3.15ZM226.92,1125.71c-2.07,0-3.96-.54-5.67-1.6-1.69-1.07-3.05-2.49-4.07-4.28-1-1.8-1.51-3.79-1.51-5.96,0-1.65.29-3.19.88-4.61.58-1.44,1.39-2.7,2.41-3.78,1.04-1.1,2.24-1.95,3.6-2.57,1.37-.61,2.82-.92,4.37-.92,2.07,0,3.95.53,5.65,1.6,1.71,1.06,3.07,2.49,4.07,4.29,1.02,1.8,1.53,3.8,1.53,5.99,0,1.63-.29,3.16-.88,4.59-.59,1.42-1.4,2.68-2.43,3.78-1.02,1.08-2.21,1.93-3.58,2.54-1.35.62-2.8.93-4.36.93ZM226.92,1122.56c1.53,0,2.9-.39,4.12-1.19,1.23-.81,2.2-1.87,2.9-3.19.72-1.32,1.08-2.76,1.08-4.3s-.36-3.02-1.08-4.34c-.72-1.34-1.69-2.4-2.92-3.2-1.22-.79-2.58-1.19-4.1-1.19s-2.91.4-4.14,1.21c-1.22.8-2.18,1.86-2.9,3.18-.71,1.32-1.06,2.76-1.06,4.34s.37,3.09,1.1,4.41c.74,1.3,1.72,2.35,2.95,3.13,1.23.76,2.58,1.14,4.05,1.14ZM252.24,1125.12h-3.24l-7.54-22.5h3.08l6.12,18.13,6.07-18.13h3.33l6.07,18.13,6.08-18.13h3.11l-7.54,22.5h-3.26l-6.17-18.32-6.12,18.32ZM289.89,1125.71c-2.07,0-3.96-.54-5.67-1.6-1.7-1.07-3.05-2.49-4.07-4.28-1.01-1.8-1.51-3.79-1.51-5.96,0-1.65.29-3.19.88-4.61.59-1.44,1.39-2.7,2.41-3.78,1.04-1.1,2.23-1.95,3.6-2.57,1.37-.61,2.82-.92,4.37-.92,1.66,0,3.2.33,4.59.99,1.41.66,2.62,1.58,3.62,2.77,1.02,1.18,1.78,2.57,2.29,4.16.52,1.59.74,3.31.65,5.15h-19.08c.18,1.43.63,2.7,1.35,3.83.73,1.12,1.67,2.01,2.79,2.67,1.14.65,2.4.98,3.78.99,1.5,0,2.85-.39,4.05-1.17,1.21-.78,2.19-1.85,2.93-3.21l3.19.74c-.9,1.99-2.26,3.63-4.07,4.9-1.82,1.26-3.85,1.9-6.1,1.9ZM281.88,1112.53h16c-.11-1.4-.53-2.67-1.28-3.83-.73-1.17-1.69-2.1-2.86-2.79-1.17-.7-2.45-1.05-3.85-1.05s-2.67.34-3.83,1.03c-1.15.68-2.1,1.6-2.83,2.77-.74,1.15-1.18,2.44-1.35,3.87ZM306.71,1125.12v-22.5h3.15v3.1c.8-1.14,1.83-2.04,3.11-2.72,1.27-.67,2.66-1.01,4.16-1.01.87,0,1.71.11,2.52.34l-1.28,3.12c-.63-.19-1.24-.29-1.85-.29-1.21,0-2.33.3-3.35.9-1.01.6-1.81,1.4-2.41,2.41-.6,1-.9,2.12-.9,3.35v13.3h-3.15ZM348.7,1105.78h-5.38l-.02,19.35h-3.15l.02-19.35h-4.07v-3.15h4.07l-.02-7.07h3.15l.02,7.07h5.38v3.15ZM374.13,1111.19v13.93h-3.15v-13.3c0-1.23-.3-2.35-.9-3.35-.6-1.01-1.4-1.81-2.41-2.41-1-.6-2.12-.9-3.35-.9s-2.33.3-3.35.9c-1.01.6-1.81,1.4-2.41,2.41-.6,1-.9,2.12-.9,3.35v13.3h-3.15v-33.75h3.15v14.35c.8-1.14,1.83-2.04,3.11-2.72,1.27-.67,2.66-1.01,4.16-1.01,1.7,0,3.24.41,4.64,1.24,1.39.82,2.51,1.93,3.33,3.33.83,1.39,1.24,2.94,1.24,4.63ZM398.49,1102.62h3.15v22.5h-3.15l-.11-4.19c-.73,1.43-1.76,2.58-3.08,3.47-1.32.87-2.9,1.31-4.73,1.31-1.65,0-3.2-.31-4.64-.93-1.44-.63-2.71-1.49-3.8-2.59-1.1-1.09-1.95-2.36-2.57-3.8-.61-1.44-.92-2.98-.92-4.63s.3-3.15.9-4.57c.61-1.43,1.45-2.68,2.52-3.76,1.08-1.08,2.33-1.92,3.73-2.52,1.43-.61,2.95-.92,4.57-.92,1.88,0,3.51.45,4.9,1.35,1.39.88,2.51,2.05,3.33,3.49l-.11-4.21ZM390.51,1122.65c1.61,0,2.99-.39,4.14-1.17,1.15-.79,2.04-1.86,2.65-3.19.63-1.34.95-2.81.95-4.41s-.32-3.14-.95-4.46c-.63-1.33-1.52-2.39-2.68-3.17s-2.53-1.17-4.12-1.17-3.04.4-4.36,1.19c-1.3.78-2.35,1.84-3.13,3.18-.77,1.33-1.15,2.81-1.15,4.43s.4,3.12,1.19,4.45c.8,1.32,1.85,2.37,3.15,3.15,1.32.78,2.75,1.17,4.3,1.17ZM427.57,1111.19v13.93h-3.15v-13.3c0-1.23-.3-2.35-.9-3.35-.6-1.01-1.4-1.81-2.41-2.41-1.01-.6-2.12-.9-3.35-.9s-2.33.3-3.35.9c-1.01.6-1.81,1.4-2.41,2.41-.6,1-.9,2.12-.9,3.35v13.3h-3.15v-22.5h3.15v3.1c.8-1.14,1.83-2.04,3.11-2.72,1.27-.67,2.66-1.01,4.16-1.01,1.69,0,3.24.41,4.63,1.24,1.4.82,2.51,1.93,3.33,3.33.82,1.39,1.24,2.94,1.24,4.63ZM461.9,1102.62h3.33l-12.31,33.75h-3.35l4.1-11.25-8.08-22.5h3.44l6.21,18.16,6.66-18.16ZM480.07,1125.71c-2.07,0-3.96-.54-5.67-1.6-1.7-1.07-3.05-2.49-4.07-4.28-1-1.8-1.51-3.79-1.51-5.96,0-1.65.29-3.19.88-4.61.58-1.44,1.39-2.7,2.41-3.78,1.04-1.1,2.24-1.95,3.6-2.57,1.36-.61,2.82-.92,4.36-.92,1.67,0,3.2.33,4.59.99,1.41.66,2.62,1.58,3.62,2.77,1.02,1.18,1.79,2.57,2.29,4.16.53,1.59.74,3.31.65,5.15h-19.08c.18,1.43.63,2.7,1.35,3.83.74,1.12,1.67,2.01,2.79,2.67,1.14.65,2.4.98,3.78.99,1.5,0,2.85-.39,4.05-1.17,1.21-.78,2.19-1.85,2.92-3.21l3.2.74c-.9,1.99-2.26,3.63-4.07,4.9-1.81,1.26-3.85,1.9-6.1,1.9ZM472.06,1112.53h16c-.11-1.4-.53-2.67-1.28-3.83-.74-1.17-1.69-2.1-2.86-2.79-1.17-.7-2.45-1.05-3.85-1.05s-2.67.34-3.82,1.03c-1.15.68-2.1,1.6-2.84,2.77-.73,1.15-1.18,2.44-1.35,3.87ZM503.88,1125.56c-1.23-.03-2.43-.26-3.6-.68-1.17-.42-2.19-.99-3.06-1.71-.87-.72-1.49-1.54-1.87-2.45l2.72-1.17c.24.58.68,1.12,1.33,1.62.66.48,1.41.87,2.25,1.17.84.28,1.67.43,2.5.43.91,0,1.77-.15,2.57-.45.79-.3,1.44-.73,1.93-1.29.51-.57.76-1.23.76-2,0-.82-.27-1.47-.81-1.93-.54-.48-1.22-.86-2.05-1.13-.82-.28-1.67-.55-2.54-.81-1.59-.43-2.99-.91-4.21-1.44-1.21-.52-2.17-1.19-2.86-2-.67-.83-1.01-1.88-1.01-3.17,0-1.37.38-2.55,1.15-3.54.78-1,1.79-1.77,3.04-2.31,1.26-.56,2.6-.84,4.03-.84,1.83,0,3.49.4,4.99,1.2,1.51.79,2.61,1.85,3.29,3.17l-2.54,1.51c-.27-.62-.7-1.15-1.28-1.6s-1.25-.8-2-1.06c-.74-.25-1.49-.39-2.25-.4-.96-.02-1.85.12-2.68.42-.83.29-1.49.72-2,1.29-.5.57-.74,1.26-.74,2.09s.25,1.45.74,1.89c.49.42,1.16.76,2,1.03.86.26,1.82.56,2.88.9,1.36.44,2.65.93,3.85,1.49,1.2.55,2.17,1.24,2.9,2.07.73.82,1.09,1.87,1.08,3.13,0,1.35-.41,2.52-1.22,3.53-.81,1-1.86,1.78-3.15,2.32-1.29.52-2.67.76-4.14.72ZM529.56,1105.78h-5.38l-.02,19.35h-3.15l.02-19.35h-4.07v-3.15h4.07l-.02-7.07h3.15l.02,7.07h5.38v3.15ZM544.66,1125.71c-2.07,0-3.96-.54-5.67-1.6-1.7-1.07-3.05-2.49-4.07-4.28-1.01-1.8-1.51-3.79-1.51-5.96,0-1.65.29-3.19.88-4.61.59-1.44,1.39-2.7,2.41-3.78,1.03-1.1,2.23-1.95,3.6-2.57,1.37-.61,2.82-.92,4.37-.92,1.66,0,3.19.33,4.59.99,1.41.66,2.62,1.58,3.62,2.77,1.02,1.18,1.78,2.57,2.29,4.16.53,1.59.74,3.31.65,5.15h-19.08c.18,1.43.63,2.7,1.35,3.83.73,1.12,1.66,2.01,2.79,2.67,1.14.65,2.4.98,3.78.99,1.5,0,2.85-.39,4.05-1.17,1.21-.78,2.19-1.85,2.92-3.21l3.2.74c-.9,1.99-2.26,3.63-4.07,4.9-1.82,1.26-3.85,1.9-6.1,1.9ZM536.65,1112.53h16c-.11-1.4-.53-2.67-1.28-3.83-.73-1.17-1.69-2.1-2.86-2.79-1.17-.7-2.45-1.05-3.85-1.05s-2.67.34-3.83,1.03c-1.16.68-2.1,1.6-2.84,2.77-.73,1.15-1.18,2.44-1.35,3.87ZM561.48,1125.12v-22.5h3.15v3.1c.79-1.14,1.83-2.04,3.1-2.72,1.27-.67,2.66-1.01,4.16-1.01.87,0,1.71.11,2.52.34l-1.28,3.12c-.63-.19-1.24-.29-1.84-.29-1.22,0-2.33.3-3.35.9-1.01.6-1.81,1.4-2.41,2.41-.6,1-.9,2.12-.9,3.35v13.3h-3.15ZM596.39,1091.38h3.15v33.75h-3.15v-4.21c-.78,1.44-1.85,2.6-3.22,3.49-1.35.87-2.96,1.31-4.82,1.31-1.64,0-3.16-.31-4.59-.93-1.42-.61-2.68-1.46-3.78-2.54-1.08-1.1-1.93-2.36-2.54-3.78-.61-1.43-.92-2.96-.92-4.59s.31-3.17.92-4.59c.61-1.44,1.46-2.7,2.54-3.78,1.09-1.1,2.35-1.95,3.78-2.57,1.43-.61,2.96-.92,4.59-.92,1.86,0,3.46.44,4.82,1.33,1.36.87,2.44,2.02,3.22,3.44v-15.41ZM588.38,1122.65c1.6,0,2.98-.39,4.14-1.17,1.15-.79,2.04-1.86,2.65-3.19.63-1.34.95-2.81.95-4.41s-.32-3.14-.95-4.46c-.63-1.33-1.52-2.39-2.68-3.17-1.16-.78-2.53-1.17-4.12-1.17s-3.04.4-4.34,1.19c-1.3.78-2.35,1.84-3.13,3.18-.78,1.33-1.17,2.81-1.17,4.43s.4,3.12,1.19,4.45c.79,1.32,1.84,2.37,3.15,3.15,1.32.78,2.75,1.17,4.3,1.17ZM625.06,1102.62h3.15v22.5h-3.15l-.11-4.19c-.73,1.43-1.76,2.58-3.08,3.47-1.32.87-2.9,1.31-4.73,1.31-1.65,0-3.2-.31-4.63-.93-1.44-.63-2.71-1.49-3.8-2.59-1.09-1.09-1.95-2.36-2.57-3.8-.61-1.44-.92-2.98-.92-4.63s.3-3.15.9-4.57c.61-1.43,1.45-2.68,2.52-3.76,1.08-1.08,2.33-1.92,3.74-2.52,1.42-.61,2.95-.92,4.57-.92,1.88,0,3.51.45,4.91,1.35,1.4.88,2.51,2.05,3.33,3.49l-.11-4.21ZM617.07,1122.65c1.61,0,2.99-.39,4.14-1.17,1.16-.79,2.04-1.86,2.66-3.19.63-1.34.94-2.81.94-4.41s-.32-3.14-.94-4.46c-.63-1.33-1.52-2.39-2.68-3.17-1.16-.78-2.53-1.17-4.12-1.17s-3.04.4-4.36,1.19c-1.3.78-2.35,1.84-3.13,3.18-.76,1.33-1.15,2.81-1.15,4.43s.4,3.12,1.19,4.45c.79,1.32,1.84,2.37,3.15,3.15,1.32.78,2.75,1.17,4.3,1.17ZM649.4,1102.62h3.33l-12.31,33.75h-3.35l4.1-11.25-8.08-22.5h3.44l6.21,18.16,6.66-18.16ZM658.33,1125.71c-.5,0-.92-.18-1.26-.54-.35-.35-.52-.78-.52-1.29,0-.48.17-.89.52-1.24.34-.36.76-.54,1.26-.54s.94.18,1.28.54c.36.35.54.76.54,1.24,0,.51-.18.94-.54,1.29-.35.36-.77.54-1.28.54Z" stroke="#000" stroke-miterlimit="10" stroke-width=".25"/>
      <path id="now" d="M997.06,1004.74v12.38h-2.8v-11.82c0-1.09-.27-2.09-.8-2.98-.53-.89-1.25-1.61-2.14-2.14-.89-.53-1.89-.8-2.98-.8s-2.07.27-2.98.8c-.89.53-1.61,1.25-2.14,2.14-.53.89-.8,1.89-.8,2.98v11.82h-2.8v-20h2.8v2.76c.71-1.01,1.63-1.82,2.76-2.42,1.13-.6,2.37-.9,3.7-.9,1.51,0,2.88.37,4.12,1.1,1.24.73,2.23,1.72,2.96,2.96.73,1.24,1.1,2.61,1.1,4.12ZM1010.98,1017.65c-1.84,0-3.52-.47-5.04-1.42-1.51-.95-2.71-2.21-3.62-3.8-.89-1.6-1.34-3.37-1.34-5.3,0-1.47.26-2.83.78-4.1.52-1.28,1.23-2.4,2.14-3.36.92-.97,1.99-1.73,3.2-2.28,1.21-.55,2.51-.82,3.88-.82,1.84,0,3.51.47,5.02,1.42,1.52.95,2.73,2.22,3.62,3.82.91,1.6,1.36,3.37,1.36,5.32,0,1.45-.26,2.81-.78,4.08-.52,1.27-1.24,2.39-2.16,3.36-.91.96-1.97,1.71-3.18,2.26-1.2.55-2.49.82-3.88.82ZM1010.98,1014.84c1.36,0,2.58-.35,3.66-1.06,1.09-.72,1.95-1.67,2.58-2.84.64-1.17.96-2.45.96-3.82s-.32-2.69-.96-3.86c-.64-1.19-1.51-2.13-2.6-2.84-1.08-.71-2.29-1.06-3.64-1.06s-2.59.36-3.68,1.08c-1.08.71-1.94,1.65-2.58,2.82-.63,1.17-.94,2.46-.94,3.86s.33,2.75.98,3.92c.65,1.16,1.53,2.09,2.62,2.78,1.09.68,2.29,1.02,3.6,1.02ZM1033.41,1017.12h-2.88l-6.7-20h2.74l5.44,16.12,5.4-16.12h2.96l5.4,16.12,5.4-16.12h2.76l-6.7,20h-2.9l-5.48-16.28-5.44,16.28Z" fill="#405769" stroke="#000" stroke-miterlimit="10" stroke-width=".25"/>
      <path id="Notification_Title" data-name="Notification Title" d="M226.13,985.62h5.51l-10.76,17.28v14.22h-4.68v-14.22l-10.73-17.28h5.51l7.56,12.17,7.58-12.17ZM242.95,1017.72c-2.07,0-3.96-.54-5.67-1.6-1.7-1.07-3.05-2.49-4.07-4.28-1-1.8-1.51-3.79-1.51-5.96,0-1.65.29-3.19.88-4.61.58-1.44,1.39-2.7,2.41-3.78,1.04-1.09,2.24-1.95,3.6-2.57,1.37-.61,2.82-.92,4.37-.92,2.07,0,3.95.53,5.65,1.6,1.71,1.07,3.07,2.5,4.07,4.3,1.02,1.79,1.53,3.79,1.53,5.98,0,1.63-.29,3.16-.88,4.59-.59,1.42-1.4,2.68-2.43,3.78-1.02,1.08-2.21,1.93-3.58,2.54-1.35.62-2.81.93-4.37.93ZM242.95,1013.03c1.24,0,2.36-.33,3.35-.99.99-.66,1.77-1.53,2.34-2.61.58-1.09.88-2.28.88-3.55s-.3-2.51-.9-3.6c-.58-1.1-1.37-1.97-2.36-2.61-.99-.66-2.09-.99-3.31-.99s-2.35.33-3.35.99c-.99.66-1.78,1.54-2.36,2.63-.57,1.1-.85,2.29-.85,3.58s.3,2.54.9,3.62,1.4,1.94,2.38,2.59c1.01.63,2.1.94,3.29.94ZM258.19,1008.68v-14.06h4.68v12.91c0,1.01.25,1.92.74,2.75.49.82,1.15,1.48,1.98,1.98.83.48,1.73.72,2.72.72s1.91-.24,2.72-.72c.82-.5,1.48-1.16,1.96-1.98.49-.83.74-1.74.74-2.75v-12.91h4.68l.02,22.5h-4.68l-.02-2.43c-.76.93-1.72,1.66-2.86,2.2-1.14.55-2.36.82-3.67.82-1.67,0-3.18-.41-4.54-1.22-1.37-.81-2.45-1.9-3.26-3.26-.81-1.37-1.22-2.88-1.22-4.55ZM284.65,1017.12v-22.5h4.68v2.39c.78-.93,1.74-1.67,2.88-2.21,1.14-.54,2.37-.81,3.69-.81.84,0,1.67.11,2.5.34l-1.87,4.73c-.58-.23-1.17-.34-1.76-.34-.99,0-1.9.25-2.72.74-.83.48-1.49,1.13-1.98,1.95-.49.83-.74,1.74-.74,2.75v12.96h-4.68ZM315.78,1017.12v-31.5h10.42c2.18,0,4.21.41,6.12,1.24,1.9.81,3.58,1.94,5.02,3.4,1.44,1.44,2.57,3.11,3.38,5.02.83,1.89,1.24,3.92,1.24,6.1s-.41,4.21-1.24,6.12c-.81,1.89-1.93,3.56-3.38,5.02-1.44,1.44-3.11,2.57-5.02,3.39-1.91.81-3.95,1.22-6.12,1.22h-10.42ZM320.46,1012.45h5.74c1.53,0,2.96-.29,4.28-.86,1.33-.57,2.51-1.36,3.53-2.38,1.04-1.02,1.84-2.2,2.41-3.53.57-1.34.86-2.77.86-4.3s-.29-2.96-.86-4.3c-.57-1.34-1.37-2.51-2.41-3.53-1.02-1.02-2.2-1.82-3.53-2.39-1.32-.57-2.75-.85-4.28-.85h-5.74v22.14ZM364.65,994.62h4.68v22.5h-4.7l-.18-3.26c-.66,1.15-1.55,2.08-2.68,2.79-1.12.7-2.45,1.06-3.98,1.06-1.65,0-3.2-.31-4.66-.93-1.45-.63-2.74-1.5-3.85-2.61-1.1-1.11-1.95-2.38-2.57-3.82-.61-1.46-.92-3.02-.92-4.68s.3-3.12.9-4.53c.6-1.42,1.43-2.67,2.5-3.73s2.29-1.9,3.69-2.5c1.41-.61,2.92-.92,4.52-.92s3.07.38,4.32,1.12c1.26.73,2.3,1.68,3.13,2.84l-.2-3.33ZM357.68,1013.18c1.32,0,2.48-.32,3.46-.97.99-.66,1.76-1.54,2.3-2.65.55-1.11.83-2.34.83-3.69s-.28-2.6-.83-3.71c-.56-1.11-1.33-1.99-2.32-2.63-.98-.66-2.12-.99-3.44-.99s-2.5.33-3.58.99c-1.08.65-1.93,1.54-2.57,2.65s-.95,2.34-.95,3.69.32,2.6.97,3.71c.66,1.1,1.52,1.97,2.59,2.63,1.08.65,2.26.97,3.53.97ZM375.52,994.62h4.68v22.5h-4.68v-22.5ZM377.91,991.36c-.72,0-1.32-.23-1.8-.7-.48-.46-.72-1.05-.72-1.76s.24-1.27.72-1.73c.48-.48,1.07-.72,1.78-.72s1.27.24,1.76.72c.48.47.72,1.04.72,1.73s-.24,1.29-.72,1.76c-.46.47-1.04.7-1.73.7ZM387.37,1017.12v-33.75h4.68v33.75h-4.68ZM413.32,994.62h4.99l-12.33,33.75h-4.97l4.07-11.25-8.08-22.5h5.11l5.31,16.09,5.89-16.09ZM448.26,1017.72c-1.72,0-3.38-.27-4.97-.82-1.59-.54-2.98-1.31-4.16-2.31-1.18-1.02-2.03-2.23-2.54-3.63l4.39-1.64c.26.72.74,1.37,1.46,1.94.74.55,1.61.99,2.61,1.3,1.02.32,2.09.47,3.22.47,1.2,0,2.33-.19,3.38-.58,1.07-.39,1.92-.93,2.57-1.62.66-.69.99-1.5.99-2.43s-.35-1.75-1.04-2.36c-.68-.62-1.55-1.11-2.61-1.47-1.05-.36-2.14-.63-3.29-.81-2.2-.36-4.18-.88-5.94-1.57-1.74-.69-3.12-1.66-4.14-2.9-1.01-1.24-1.51-2.86-1.51-4.86,0-1.88.53-3.51,1.6-4.9,1.08-1.4,2.5-2.48,4.25-3.24,1.77-.78,3.68-1.17,5.74-1.17,1.7,0,3.33.27,4.9.81,1.59.53,2.99,1.3,4.19,2.32,1.21,1.01,2.08,2.23,2.61,3.67l-4.43,1.6c-.26-.73-.74-1.37-1.46-1.91-.72-.55-1.59-.99-2.61-1.3-1.01-.32-2.07-.47-3.2-.47-1.2-.02-2.32.18-3.38.59-1.03.39-1.88.93-2.54,1.62s-.99,1.49-.99,2.41c0,1.12.31,1.98.92,2.57s1.44,1.02,2.48,1.3c1.05.27,2.22.52,3.51.74,2.07.33,3.98.88,5.74,1.64,1.77.77,3.19,1.79,4.25,3.06,1.08,1.26,1.62,2.81,1.62,4.66s-.54,3.5-1.62,4.9c-1.07,1.4-2.48,2.49-4.25,3.27-1.76.76-3.67,1.15-5.74,1.15ZM470.88,1028.38h-4.68v-33.75h4.68v3.31c.75-1.16,1.71-2.09,2.88-2.81,1.17-.72,2.55-1.08,4.14-1.08s3.17.31,4.59.92c1.44.62,2.7,1.47,3.78,2.57,1.08,1.08,1.93,2.33,2.54,3.76.61,1.42.92,2.95.92,4.59s-.31,3.17-.92,4.61c-.62,1.44-1.46,2.71-2.54,3.8-1.08,1.08-2.34,1.93-3.78,2.55-1.42.61-2.95.92-4.59.92s-2.97-.36-4.14-1.08c-1.17-.74-2.13-1.67-2.88-2.81v14.51ZM477.86,998.56c-1.31,0-2.45.33-3.44.99-.99.66-1.76,1.54-2.32,2.65-.55,1.1-.83,2.32-.83,3.67s.28,2.58.83,3.69,1.33,1.99,2.32,2.65c.99.66,2.14.99,3.44.99s2.47-.32,3.55-.96c1.08-.66,1.94-1.55,2.59-2.66.64-1.11.97-2.35.97-3.71s-.32-2.56-.97-3.67c-.63-1.11-1.49-1.99-2.57-2.65-1.08-.66-2.27-.99-3.58-.99ZM504.96,1017.72c-2.07,0-3.96-.54-5.67-1.6-1.7-1.07-3.05-2.49-4.07-4.28-1.01-1.8-1.51-3.79-1.51-5.96,0-1.65.29-3.19.88-4.61.59-1.44,1.39-2.7,2.41-3.78,1.04-1.09,2.23-1.95,3.6-2.57,1.37-.61,2.82-.92,4.37-.92,1.73,0,3.31.36,4.75,1.08,1.44.71,2.67,1.69,3.69,2.95,1.02,1.25,1.77,2.68,2.25,4.32.48,1.62.62,3.34.43,5.17h-17.35c.2,1.04.57,1.97,1.12,2.81.57.83,1.29,1.48,2.16,1.96.88.48,1.87.73,2.95.74,1.14,0,2.17-.28,3.1-.85.95-.57,1.72-1.36,2.32-2.36l4.75,1.1c-.9,1.99-2.26,3.63-4.07,4.9-1.82,1.26-3.85,1.9-6.1,1.9ZM498.57,1003.93h12.78c-.15-1.08-.53-2.05-1.15-2.92-.6-.89-1.36-1.58-2.27-2.09-.9-.53-1.89-.79-2.97-.79s-2.05.26-2.97.77c-.9.51-1.65,1.21-2.25,2.09-.58.87-.98,1.85-1.17,2.94ZM541.75,1003.02v14.11h-4.68v-12.96c0-1.01-.25-1.92-.74-2.75-.48-.82-1.13-1.47-1.96-1.95-.81-.49-1.73-.74-2.74-.74s-1.9.25-2.72.74c-.82.48-1.48,1.13-1.98,1.95-.49.83-.74,1.74-.74,2.75v12.96h-4.68v-22.5h4.68v2.39c.78-.93,1.74-1.67,2.88-2.21,1.14-.54,2.37-.81,3.69-.81,1.66,0,3.18.41,4.54,1.22s2.45,1.9,3.24,3.26c.81,1.36,1.22,2.88,1.22,4.54ZM565.03,983.38h4.68v33.75h-4.68v-3.31c-.73,1.17-1.7,2.12-2.88,2.84-1.18.7-2.57,1.06-4.16,1.06s-3.17-.31-4.59-.93c-1.42-.61-2.68-1.46-3.78-2.54-1.08-1.1-1.93-2.36-2.54-3.78-.61-1.43-.92-2.96-.92-4.59s.31-3.17.92-4.59c.61-1.44,1.46-2.7,2.54-3.78,1.09-1.1,2.35-1.95,3.78-2.57s2.96-.92,4.59-.92,2.98.36,4.16,1.08c1.18.71,2.15,1.64,2.88,2.79v-14.51ZM558.03,1013.18c1.32,0,2.47-.32,3.46-.97.99-.66,1.76-1.54,2.3-2.65.55-1.11.83-2.34.83-3.69s-.28-2.6-.83-3.71c-.55-1.11-1.33-1.99-2.32-2.63-.98-.66-2.12-.99-3.44-.99s-2.5.33-3.58.99c-1.07.65-1.92,1.54-2.57,2.65-.63,1.11-.95,2.34-.95,3.69s.32,2.6.97,3.71c.66,1.1,1.52,1.97,2.59,2.63,1.08.65,2.26.97,3.53.97ZM576.8,994.62h4.68v22.5h-4.68v-22.5ZM579.18,991.36c-.72,0-1.32-.23-1.8-.7-.48-.46-.72-1.05-.72-1.76s.24-1.27.72-1.73c.48-.48,1.07-.72,1.78-.72s1.27.24,1.76.72c.48.47.72,1.04.72,1.73s-.24,1.29-.72,1.76c-.47.47-1.04.7-1.73.7ZM608.64,1003.02v14.11h-4.68v-12.96c0-1.01-.25-1.92-.74-2.75-.48-.82-1.13-1.47-1.96-1.95-.81-.49-1.72-.74-2.74-.74s-1.9.25-2.72.74c-.83.48-1.48,1.13-1.98,1.95-.49.83-.74,1.74-.74,2.75v12.96h-4.68v-22.5h4.68v2.39c.78-.93,1.74-1.67,2.88-2.21,1.14-.54,2.37-.81,3.69-.81,1.67,0,3.18.41,4.55,1.22,1.36.81,2.44,1.9,3.24,3.26.81,1.36,1.21,2.88,1.21,4.54ZM631.51,994.62h4.68v23.09c0,1.54-.33,2.97-.99,4.27-.65,1.31-1.52,2.43-2.63,3.38-1.11.96-2.39,1.7-3.83,2.22-1.42.53-2.92.79-4.48.79s-3.09-.34-4.55-1.01c-1.45-.66-2.74-1.56-3.85-2.7-1.09-1.14-1.91-2.43-2.45-3.87l4.3-1.94c.3.93.78,1.76,1.44,2.48.67.72,1.45,1.29,2.34,1.71.9.42,1.82.63,2.77.63s1.82-.15,2.68-.45c.87-.29,1.64-.69,2.32-1.22.69-.52,1.24-1.15,1.64-1.89.4-.73.61-1.53.61-2.4v-3.81c-.73,1.14-1.68,2.06-2.84,2.77-1.15.69-2.5,1.04-4.03,1.04s-3.09-.31-4.5-.93c-1.41-.61-2.65-1.46-3.71-2.54-1.07-1.1-1.9-2.36-2.5-3.78-.6-1.43-.9-2.96-.9-4.59s.3-3.17.9-4.59c.6-1.44,1.43-2.7,2.5-3.78,1.07-1.1,2.3-1.95,3.71-2.57,1.41-.61,2.91-.92,4.5-.92s2.87.35,4.03,1.06c1.16.69,2.1,1.61,2.84,2.77v-3.22ZM624.69,1013.18c1.3,0,2.45-.33,3.42-.99.98-.67,1.73-1.57,2.27-2.68.54-1.11.81-2.32.81-3.64s-.28-2.57-.83-3.67c-.54-1.11-1.3-1.99-2.27-2.65-.98-.67-2.11-1.01-3.4-1.01s-2.41.33-3.46.99c-1.04.65-1.86,1.54-2.48,2.65s-.92,2.34-.92,3.69.31,2.58.92,3.69c.63,1.11,1.46,1.99,2.5,2.65,1.05.65,2.2.97,3.44.97Z" stroke="#000" stroke-miterlimit="10" stroke-width=".25"/>
      <g clip-path="url(#clippath-3)">
        <g id="App_Icon" data-name="App Icon">
          <rect id="App_Icon_2" data-name="App Icon_2" x="60.12" y="998.12" width="114" height="114" rx="26" ry="26" fill="none" stroke="#000" stroke-miterlimit="10"/>
        </g>
      </g>
    </g>
  </g>
</svg>